<?xml version="1.0" standalone="no"?>
<!DOCTYPE svg PUBLIC "-//W3C//DTD SVG 1.1//EN" "http://www.w3.org/Graphics/SVG/1.1/DTD/svg11.dtd" >
<svg xmlns="http://www.w3.org/2000/svg">
<metadata></metadata>
<defs>
<font id="kotta_oneregular" horiz-adv-x="1376" >
<font-face units-per-em="2048" ascent="1638" descent="-410" />
<missing-glyph horiz-adv-x="409" />
<glyph horiz-adv-x="2048" />
<glyph horiz-adv-x="2048" />
<glyph unicode="&#xd;" horiz-adv-x="681" />
<glyph unicode=" "  horiz-adv-x="409" />
<glyph unicode="&#x09;" horiz-adv-x="409" />
<glyph unicode="&#xa0;" horiz-adv-x="409" />
<glyph unicode="!" horiz-adv-x="530" d="M106 41l9 63q10 31 49 50.5t80 19.5t64.5 -18.5t23.5 -40.5l-10 -74q-23 -61 -132 -61q-41 0 -62.5 18t-21.5 43zM184 350q16 100 37 422t21 621l159 32l29 -32q-41 -240 -85 -583t-44 -460q-27 -10 -70 -10z" />
<glyph unicode="&#x22;" horiz-adv-x="694" d="M115 1004q29 209 28 428l133 32l29 -32q-74 -322 -74 -428q-26 -11 -69 -11zM395 1004q29 209 29 428l133 32l29 -32q-74 -322 -74 -428q-27 -11 -70 -11z" />
<glyph unicode="#" horiz-adv-x="1310" d="M102 446l11 70h235q16 182 23 299h-258q-10 23 -11 47l11 70h266q18 303 18 461l160 32l29 -32q-18 -102 -64 -461q205 0 328 4q18 303 18 457l160 32l29 -32q-23 -129 -62 -451q66 2 156 10l33 -28l-27 -109h-176q-25 -197 -33 -293q139 8 203 15l33 -29l-27 -109h-221 q-33 -305 -33 -409q-37 -10 -80 -10l-57 10q16 117 43 409h-344q-33 -305 -33 -409q-37 -10 -80 -10l-57 10q16 117 43 409h-225q-10 23 -11 47zM477 516q211 0 342 4q14 174 23 295h-332q-25 -197 -33 -299z" />
<glyph unicode="$" horiz-adv-x="1093" d="M92 123q41 72 64 172l6 35q45 16 96 16q-14 -35 -14 -90q0 -100 45 -133h149q18 172 47 489q-129 74 -187 136.5t-58 156.5q-1 279 290 342l2 117l138 27l24 -27l-16 -100q92 0 164.5 -32t85.5 -75q-39 -74 -60 -176l-8 -35q-45 -18 -96 -18q14 47 14 92q0 104 -45 137 h-69l-52 -438q150 -96 217.5 -170t67.5 -156q0 -170 -94 -269t-266 -122q-6 -86 -7 -125q-33 -10 -71 -10l-49 10l14 117q-150 0 -229.5 38t-102.5 91zM377 965q0 -90 123 -177q20 272 26 369q-72 -25 -110.5 -82t-38.5 -110zM549 123h96q96 64 96 205q0 113 -149 217 q-35 -324 -43 -422z" />
<glyph unicode="%" horiz-adv-x="1546" d="M182 910.5q0 107.5 86 205.5t182.5 98t155 -52t58.5 -158.5t-84 -204t-197 -97.5q-84 0 -142.5 50.5t-58.5 158zM229 -20q309 399 484.5 642.5t435.5 657.5l188 33l9 -33q-55 -74 -189.5 -247t-184.5 -239.5t-153 -205.5q-215 -287 -434 -608q-53 -11 -94 -11zM303 945.5 q0 -111.5 78 -140.5h76q37 14 60.5 63.5t23.5 104.5q0 100 -72 137h-70q-96 -53 -96 -164.5zM844 187.5q0 107.5 86 206t182 98.5t154.5 -52.5t58.5 -159t-84 -203.5t-197 -97q-83 0 -141.5 50t-58.5 157.5zM965 222.5q0 -111.5 77 -140.5h76q37 14 60.5 63.5t23.5 104.5 q0 102 -72 137h-69q-96 -53 -96 -164.5z" />
<glyph unicode="&#x26;" horiz-adv-x="1413" d="M174 282.5q0 153.5 76 265t211 216.5q-92 178 -92 314t102 235.5t235.5 99.5t194 -58.5t60.5 -132t-20.5 -132t-44.5 -95.5t-78 -87t-81.5 -70.5t-97.5 -71.5q121 -197 365 -444q53 72 92 133q59 -20 88 -62l8 -12q-59 -86 -107 -143q90 -90 179 -168v-27l-131 -104 q-92 88 -166 167q-96 -88 -188.5 -112.5t-247 -24.5t-256 80t-101.5 233.5zM346 342q0 -84 42 -144.5t120 -74.5h231q4 0 18.5 4t20.5 5t19.5 5t22.5 8.5t22 10.5q14 6 47 34q-244 264 -373 480q-170 -148 -170 -328zM514 1116q0 -119 74 -260q113 84 169 153.5t56 167 t-59 123.5h-131q-49 -16 -79 -70.5t-30 -113.5z" />
<glyph unicode="'" horiz-adv-x="378" d="M115 1004q29 209 28 428l133 32l29 -32q-74 -322 -74 -428q-26 -11 -69 -11z" />
<glyph unicode="(" horiz-adv-x="583" d="M117 438q0 520 362 1022q23 0 41 -8l37 -25q-299 -483 -299 -921q0 -160 45 -366t90 -333l45 -126q-14 -16 -37 -23l-47 -8q-27 37 -75 137t-79.5 188t-57 215t-25.5 248z" />
<glyph unicode=")" horiz-adv-x="595" d="M14 -317q299 483 299 921q0 160 -45 366t-90 333l-45 127q14 16 37 22l47 8q27 -37 75 -137t79.5 -188t57.5 -215t26 -248q0 -520 -363 -1022q-23 0 -41 8z" />
<glyph unicode="*" horiz-adv-x="731" d="M90 1212l47 95h23l172 -115l6 10q0 98 -4 146.5t-4 64.5l131 21l10 -21q-27 -55 -43 -217q43 18 108.5 47t92.5 39l22 -74l-14 -18q-111 -35 -182 -66q68 -111 135 -200v-23l-121 -51l-107 205l-110 -174h-137l-9 20q133 152 170 211q-74 47 -186 100z" />
<glyph unicode="+" horiz-adv-x="968" d="M176 653l10 70h248l23 262q29 10 62.5 10t53.5 -10l-22 -260q139 10 229 18l33 -28l-27 -109h-243l-21 -244q-29 -10 -72.5 -10t-43.5 13l18 241h-238q-10 23 -10 47z" />
<glyph unicode="," horiz-adv-x="477" d="M41 -293q57 49 102 122t45 123t-20.5 90t-38.5 40v63q80 27 164 97h14q39 -59 39 -139t-61.5 -199t-122.5 -191l-62 -69q-31 10 -59 39v24z" />
<glyph unicode="-" horiz-adv-x="833" d="M98 653l11 70h186q180 0 407 20l33 -28l-26 -129h-600q-10 43 -11 67z" />
<glyph unicode="." horiz-adv-x="442" d="M121 41l8 63q10 31 49 50.5t80 19.5t64.5 -18.5t23.5 -40.5l-10 -74q-23 -61 -131 -61q-41 0 -62.5 18t-21.5 43z" />
<glyph unicode="/" horiz-adv-x="944" d="M49 -297q66 137 337 790.5t370 940.5l188 32l8 -32q-102 -199 -409 -899.5t-350 -831.5q-21 -10 -89 -10z" />
<glyph unicode="0" horiz-adv-x="1183" d="M117 516q0 242 76 461q41 123 103 218t163.5 156.5t226.5 61.5q201 0 305.5 -159.5t104.5 -387.5q0 -242 -76 -460q-41 -123 -103.5 -218.5t-164 -157t-226.5 -61.5q-201 0 -305 160t-104 387zM283 586q0 -336 211 -484h190q111 55 178.5 281t67.5 414q0 336 -211 483 h-191q-111 -55 -178 -280.5t-67 -413.5z" />
<glyph unicode="1" horiz-adv-x="847" d="M135 -14q0 47 21 88q131 23 194 67q35 238 72 583t41 478q-141 -184 -213 -295q-27 0 -54.5 22.5t-37.5 47.5v8q166 164 321 406l139 30l27 -30q-31 -178 -74 -606.5t-55 -675.5q113 -25 201 -33l24 -2q0 -47 -20 -88q-264 14 -340 14z" />
<glyph unicode="2" horiz-adv-x="1073" d="M63 18v21q96 145 237.5 303t243 256t176.5 214t75 207t-29 155.5t-68 95.5h-266q-41 -37 -72 -119l-12 -31q-39 0 -80 25q2 121 31 196q115 72 311.5 72t276.5 -91t80 -228.5t-68 -261t-154 -215t-226 -238t-228 -256.5h545q35 53 49 129l6 27q57 -14 92 -52 q-43 -164 -47 -247q-127 -10 -236 -11q-262 0 -485 51l-27 -40q-86 8 -125 38z" />
<glyph unicode="3" horiz-adv-x="905" d="M4 29q0 47 35 94h319q106 31 176 118t70 198.5t-56 189.5t-136 100l-64 -35q-45 8 -80 51v25q328 184 328 358q0 113 -84 142h-240q-41 -37 -71 -119l-13 -31q-39 0 -79 25q2 121 30 196q125 72 288 72t239.5 -65.5t76.5 -184.5q0 -178 -186 -334q96 -29 158.5 -110.5 t62.5 -206.5q0 -209 -171 -370.5t-384 -161.5q-100 0 -190 36z" />
<glyph unicode="4" horiz-adv-x="1095" d="M80 365v110q238 322 538 766l97 141l127 31l26 -31q-55 -444 -77 -897h202q0 -74 -35 -125l-10 -18h-164q-4 -66 -16 -342q-47 -20 -88 -20q-66 0 -98 20l43 342h-521zM246 485h395q30 283 59 701q-268 -365 -454 -701z" />
<glyph unicode="5" horiz-adv-x="942" d="M61 29q6 59 27 94h324q111 47 170 142t59 237.5t-77 231.5t-224 91h-119l-24 37q76 301 75 510l23 21q186 0 327.5 12t188.5 25l49 14l19 -14q-4 -18 -21.5 -56.5t-36.5 -62.5q-49 -61 -114 -62h-314q-35 -100 -65 -282h34q207 0 320 -98.5t113 -293.5 q0 -240 -145.5 -417.5t-370.5 -177.5q-98 0 -189 36z" />
<glyph unicode="6" horiz-adv-x="1118" d="M121 496q0 244 88 477q47 125 116.5 221t179 157.5t243.5 61.5q68 0 126 -17.5t82 -35.5l25 -17q-2 -49 -20 -73h-377q-82 -31 -165 -169t-124 -315q159 148 354 148q317 0 318 -395q0 -184 -119 -367q-57 -84 -147.5 -138t-196.5 -54q-193 0 -288 124.5t-95 391.5z M268 555q0 -297 174 -432h201q78 41 132 140t54 223t-61 225.5t-158 101.5h-118q-109 -23 -218 -147q-6 -56 -6 -111z" />
<glyph unicode="7" horiz-adv-x="1079" d="M94 1137q4 109 56 256h813l22 -21l-606 -1372q-31 -20 -68 -20q-57 0 -82 20l566 1249h-559q-43 -55 -66 -114l-8 -23q-39 0 -68 25z" />
<glyph unicode="8" horiz-adv-x="980" d="M78 285.5q0 144.5 80 251t250 208.5q-179 142 -179 273q0 182 108.5 288.5t249 106.5t210 -78t69.5 -196q0 -197 -248 -365q82 -59 130.5 -102t90.5 -111.5t42 -140.5q0 -186 -128 -313t-333 -127q-166 0 -254 80.5t-88 225zM219 340q0 -78 42 -139.5t110 -77.5h243 q54 35 92.5 101.5t38.5 134t-46 132t-90 101.5t-134 102q-133 -80 -194.5 -153.5t-61.5 -200.5zM352 1085.5q0 -69.5 51.5 -130t149.5 -132.5q166 131 166 281q0 68 -28.5 127t-69.5 63h-152q-53 -24 -85 -81.5t-32 -127z" />
<glyph unicode="9" horiz-adv-x="1056" d="M98 854q0 184 119 367q57 84 147.5 138t196.5 54q193 0 288 -125t95 -391q0 -244 -92 -477q-47 -123 -115.5 -220.5t-173 -158.5t-227.5 -61q-68 0 -126 17t-83 36l-25 16q2 49 21 74h377q80 29 155.5 163t112.5 308q-143 -135 -352 -135q-317 0 -318 395zM236 907 q0 -125 61 -226t158 -101h118q104 23 215 133q9 82 9 125q0 160 -51.5 272.5t-122.5 169.5h-201q-76 -41 -131 -144.5t-55 -228.5z" />
<glyph unicode=":" horiz-adv-x="509" d="M143 41l9 63q10 31 49 50.5t80 19.5t64.5 -18.5t23.5 -40.5l-11 -74q-23 -61 -131 -61q-41 0 -62.5 18t-21.5 43zM209 788l8 64q10 31 49 50.5t80 19.5t64.5 -18.5t23.5 -41.5l-10 -74q-23 -61 -131 -61q-41 0 -62.5 18.5t-21.5 42.5z" />
<glyph unicode=";" horiz-adv-x="481" d="M41 -293q57 49 102 122t45 123t-20.5 90t-38.5 40v63q80 27 164 97h14q39 -59 39 -139t-61.5 -199t-122.5 -191l-62 -69q-31 10 -59 39v24zM160 788l8 64q10 31 49 50.5t80 19.5t64.5 -18.5t23.5 -41.5l-10 -74q-23 -61 -131 -61q-41 0 -62.5 18.5t-21.5 42.5z" />
<glyph unicode="&#x3c;" horiz-adv-x="970" d="M94 618l668 433q49 0 82 -41q8 -10 12 -21l-563 -352l553 -365v-20q-33 -41 -105 -82l-639 418z" />
<glyph unicode="=" horiz-adv-x="972" d="M176 553l10 70h187q180 0 407 20l33 -29l-27 -129h-600q-10 43 -10 68zM176 809l10 70h187q180 0 407 20l33 -29l-27 -129h-600q-10 43 -10 68z" />
<glyph unicode="&#x3e;" horiz-adv-x="946" d="M84 276l563 353l-538 352v20q33 41 104 82l625 -405l8 -31l-668 -432q-49 0 -82 41q-8 10 -12 20z" />
<glyph unicode="?" horiz-adv-x="761" d="M86 41l8 63q10 31 49 50.5t80 19.5t64.5 -18.5t23.5 -40.5l-10 -74q-23 -61 -131 -61q-41 0 -62.5 18t-21.5 43zM184 350l29 336l25 25h229q121 63 121 215q0 125 -108.5 246.5t-227.5 146.5v37l108 71q133 -41 251 -160.5t118 -283.5t-113.5 -276.5t-275.5 -112.5 l-39 -244q-27 -10 -70 -10z" />
<glyph unicode="@" horiz-adv-x="2471" d="M287 215q0 238 87 463t242.5 400t388 280.5t504.5 105.5q182 0 324.5 -61.5t226.5 -164.5t126 -227t42 -303.5t-62.5 -343t-185.5 -339.5q-272 0 -501 -56q-74 0 -74 92l39 293l-21 13q-76 -184 -153.5 -285.5t-204.5 -101.5t-213 93t-86 253q0 264 157.5 460.5 t391.5 196.5q76 0 172 -59q4 37 8 59q102 31 195 31q-39 -158 -65 -340t-50 -551h342q18 18 49 71.5t49 108.5q53 145 53 334q0 260 -120.5 437t-311.5 222h-534q-252 -121 -443.5 -401.5t-191.5 -560.5q0 -362 164 -510q82 -76 180 -114t238 -54h610q0 -45 -43 -88 q-420 -68 -537 -68q-395 0 -593.5 182.5t-198.5 532.5zM922 383q0 -90 41 -163t92 -97h98q119 23 289 430q8 86 33 287h-328q-80 -14 -152.5 -158.5t-72.5 -298.5z" />
<glyph unicode="A" d="M-20 -25q0 47 20 88q66 18 121 58q383 676 612 1184l-16 65q88 43 188 43q193 -870 322 -1319l170 -31q0 -47 -21 -88q-211 14 -286 15l-216 -15q0 47 21 88q59 14 113 41q-63 326 -74 371q-240 6 -316.5 6t-179.5 -8l-180 -369l176 -41q0 -47 -20 -88q-164 14 -240 15z M489 580q95 -6 197 -6q9 0 19 -1q94 0 206 5q-25 117 -135 561q-109 -199 -287 -559z" />
<glyph unicode="B" horiz-adv-x="1193" d="M41 -14q0 47 20 88q82 25 140 73q53 451 92 1135l-154 37q0 47 21 88q131 -14 206.5 -14t186 10t147.5 10q365 0 365 -287q0 -252 -223 -362q133 -31 200.5 -110t67.5 -185q0 -250 -164 -369.5t-428 -119.5q-68 0 -159 10t-123 10zM377 123h397q178 68 178 285 q0 127 -81 203.5t-179 76.5h-282q-8 -96 -33 -565zM416 782h297q202 90 202 285q0 76 -34.5 137.5t-98.5 75.5h-315q-33 -264 -51 -498z" />
<glyph unicode="C" horiz-adv-x="1191" d="M35 494q0 285 129 522q139 256 385 356q131 53 259 53t209 -37.5t105 -87.5q-43 -78 -69 -202l-11 -41q-51 -18 -110 -19q16 45 16 105q0 100 -53 137h-328q-172 -92 -266 -281.5t-94 -381t72.5 -325.5t212.5 -169h489q0 -47 -20 -88q-289 -76 -457 -76 q-217 0 -343 151.5t-126 383.5z" />
<glyph unicode="D" horiz-adv-x="1345" d="M41 -14q0 47 20 88q82 25 140 73q43 362 90 1135l-152 37q0 47 21 88q163 -14 239 -14l359 20q111 0 203 -41t153.5 -106.5t104.5 -151.5q80 -158 79 -330q0 -367 -215 -585.5t-581 -218.5q-66 0 -146 10t-104 10h-43zM371 123h395q158 61 263.5 245.5t105.5 378 t-117 363.5t-297 170h-277q-37 -315 -44 -461.5t-15 -359.5t-14 -336z" />
<glyph unicode="E" horiz-adv-x="1175" d="M25 -14q0 47 20 88q74 23 131 67q53 457 92 1141l-153 37q0 47 20 88q131 -14 213 -14h752q18 -16 33 -52q-43 -76 -72 -184l-8 -35q-41 -18 -101 -18q19 84 19 124t-31 52h-498q-39 -336 -53 -522h459q33 49 49 110q14 6 41 6l45 -8q-43 -135 -63 -346q-16 -8 -41 -8 l-35 6q0 82 -17 137h-444q-18 -250 -31 -532h531q39 57 57 131l6 27q63 -12 86 -43l8 -13q-41 -102 -53 -225h-768z" />
<glyph unicode="F" horiz-adv-x="1079" d="M55 -14q0 47 21 88q82 25 139 73q53 451 92 1135l-153 37q0 47 20 88q164 -14 240 -14h725q18 -16 32 -52q-43 -76 -69 -184l-10 -35q-41 -18 -101 -18q19 84 19 124t-31 52h-498q-39 -336 -53 -522h459q33 49 49 110q14 6 41 6l45 -8q-43 -135 -64 -346q-16 -8 -40 -8 l-35 6q0 82 -17 137h-444q-16 -233 -33 -551l168 -30q0 -47 -20 -88q-170 14 -240 14q-98 0 -211 -12z" />
<glyph unicode="G" horiz-adv-x="1341" d="M115 494q0 285 129 522q139 256 383 356q133 53 263 53t240.5 -39.5t133.5 -85.5q-43 -78 -72 -202l-8 -41q-51 -18 -111 -19q16 45 17 105q0 100 -54 137h-389q-172 -92 -266 -281.5t-94 -381t75.5 -325.5t215.5 -169h389q39 172 43 342l-156 35q0 47 20 88 q129 -14 209 -15l215 15q0 -47 -20 -88q-63 -12 -119 -41q-25 -137 -37 -383q-326 -117 -548 -117t-340.5 148.5t-118.5 386.5z" />
<glyph unicode="H" horiz-adv-x="1546" d="M88 -14q0 47 21 88q82 25 139 73q53 457 92 1143l-160 29q0 47 21 88q170 -14 245 -14l236 14q0 -47 -20 -88q-90 -16 -150 -59q-33 -268 -51 -502h661q20 360 33 532l-160 29q0 47 21 88q190 -14 266 -14l215 14q0 -47 -20 -88q-90 -16 -150 -59q-55 -481 -90 -1156 l168 -30q0 -47 -21 -88q-170 14 -243 14q-113 0 -211 -12l-27 -2q0 47 21 88q82 25 139 73q37 324 51 510h-659q-16 -236 -33 -553l168 -30q0 -47 -21 -88q-170 14 -243 14q-113 0 -211 -12z" />
<glyph unicode="I" horiz-adv-x="684" d="M55 -14q0 47 21 88q78 23 135 69q53 461 92 1149l-156 27q0 47 21 88q180 -14 256 -14l225 14q0 -47 -20 -88q-96 -16 -154 -64q-53 -444 -90 -1151l172 -30q0 -47 -20 -88q-201 14 -263 14q-90 0 -192 -12z" />
<glyph unicode="J" horiz-adv-x="604" d="M0 -444q102 96 182 260t103.5 339t36 339.5t25.5 436t20 361.5l-154 27q0 47 20 88q190 -14 267 -14l215 14q0 -47 -21 -88q-100 -18 -159 -68q-31 -215 -48.5 -542.5t-41 -506.5t-79 -315.5t-120.5 -220.5q-127 -158 -203 -198h-18q-25 31 -25 88z" />
<glyph unicode="K" horiz-adv-x="1224" d="M39 -14q0 47 20 88q82 25 140 73q53 457 92 1143l-160 29q0 47 21 88q154 -14 225 -14q113 0 225 12l31 2q0 -47 -21 -88q-90 -16 -149 -59q-39 -350 -51 -504q63 14 163 43q143 143 212 221t196 246l-164 41q0 47 25 88q147 -14 223 -15l199 15q0 -47 -21 -88 q-80 -8 -147 -76q-231 -231 -426 -477q178 -260 415 -660l170 -31q0 -47 -20 -88q-184 14 -317 15q-197 373 -416 686l-98 -19q-16 -236 -33 -553l168 -30q0 -47 -21 -88q-211 14 -287 14z" />
<glyph unicode="L" horiz-adv-x="1120" d="M53 -14q0 47 21 88q82 25 139 73q51 444 94 1145l-151 27q0 47 20 88q190 -14 254 -14q88 0 197 12l30 2q0 -47 -20 -88q-102 -18 -160 -68q-55 -471 -88 -1128h563q39 57 56 147l4 31q61 -12 100 -55q-43 -106 -51 -246h-813z" />
<glyph unicode="M" horiz-adv-x="1751" d="M18 -14q0 47 21 88q82 23 139 73q92 641 135 1133l-170 39q0 47 21 88q125 -14 205 -14h176q178 -709 317 -1108q166 354 463 1108h186l215 14q0 -47 -20 -88q-92 -16 -152 -62q-53 -563 -63 -1151l174 -32q0 -47 -20 -88q-170 14 -244 14q-113 0 -211 -12l-27 -2 q0 47 21 88q76 23 133 69q41 387 65 1041q-291 -633 -493 -1184l-29 -20l-121 20q-158 645 -311 1153q-80 -561 -115 -1040l170 -39q0 -47 -20 -88q-174 14 -250 14z" />
<glyph unicode="N" d="M45 -14q0 47 21 88q80 23 137 71q37 270 51 443.5t29.5 376t25.5 317.5l-170 37q0 47 21 88q131 -14 213 -14h110q178 -362 364.5 -690t209.5 -369q61 586 78 948l-174 37q0 47 20 88q137 -14 207 -14q111 0 223 12l31 2q0 -47 -21 -88q-94 -16 -151 -62 q-74 -604 -99 -1257l-28 -20l-121 20q-383 729 -592 1100q-31 -248 -78 -991l168 -35q0 -47 -20 -88q-184 14 -260 14z" />
<glyph unicode="O" horiz-adv-x="1406" d="M78 494q0 287 127 520q139 256 383 354q133 55 289 55q217 0 343 -150.5t126 -381.5q0 -356 -195 -633q-94 -135 -251 -217t-363.5 -82t-332.5 152t-126 383zM250 617.5q0 -191.5 72.5 -325.5t212.5 -169h284q172 92 263.5 274.5t91.5 373t-71 327.5t-206 182h-287 q-172 -92 -266 -281.5t-94 -381z" />
<glyph unicode="P" horiz-adv-x="960" d="M14 -14q0 47 21 88q82 25 139 73q53 451 92 1135l-151 37q0 47 20 88q164 -14 240 -14l280 20q178 0 285 -81t107 -261q0 -231 -173.5 -363.5t-414.5 -132.5h-84l-27 -471l168 -30q0 -47 -20 -88q-211 14 -273 14q-90 0 -182 -12zM381 680h213q139 27 216 120t77 201.5 t-45 184.5t-129 94h-273q-41 -352 -59 -600z" />
<glyph unicode="Q" horiz-adv-x="1390" d="M78 494q0 287 127 520q139 256 383 354q133 55 289 55q217 0 343 -150.5t126 -387t-95.5 -454.5t-273.5 -343l446 -287v-67q-262 0 -407 102q-98 70 -209 164q-129 -41 -260 -41q-217 0 -343 152t-126 383zM250 617.5q0 -191.5 72.5 -325.5t212.5 -169h153l111 82l75 -49 q145 100 222.5 270t77.5 352.5t-71 319.5t-206 182h-287q-172 -92 -266 -281.5t-94 -381z" />
<glyph unicode="R" horiz-adv-x="1181" d="M47 -14q0 47 21 88q82 25 139 73q53 451 92 1135l-152 37q0 47 21 88q164 -14 240 -14l278 20q178 0 285.5 -81t107.5 -250t-79.5 -280.5t-217.5 -170.5q131 -305 265 -541l159 -27q0 -47 -20 -88q-172 14 -305 15q-109 287 -263 596q-53 -10 -131 -11h-79l-27 -471 l168 -30q0 -47 -21 -88q-211 14 -286 14zM414 680h209q139 27 218 120t79 220q0 88 -46.5 165t-130.5 95h-270q-41 -352 -59 -600z" />
<glyph unicode="S" horiz-adv-x="1093" d="M49 102q43 78 70 203l10 41q51 18 111 19q-16 -45 -17 -105q0 -100 53 -137h410q121 76 121 221q0 94 -74 175t-228.5 171t-220 155.5t-65.5 166.5q0 207 139.5 309t366.5 102q106 0 189 -35.5t100 -87.5q-43 -78 -72 -202l-8 -41q-51 -18 -111 -19q16 45 17 105 q0 100 -54 137h-278q-131 -49 -131 -191.5t231 -275.5q195 -111 282 -201t87 -192q0 -227 -144.5 -344t-404.5 -117q-317 0 -379 143z" />
<glyph unicode="T" horiz-adv-x="1144" d="M41 1114q37 135 51 293q319 -14 567 -14l603 14l6 -14q-45 -102 -72 -250l-8 -45q-45 -18 -109 -19q20 88 29 181q-190 10 -387 14q-57 -498 -92 -1170l172 -30q0 -47 -21 -88q-170 12 -260 14h-26l-195 -14q0 47 20 88q78 23 136 69q53 449 92 1131l-342 -14 q-37 -59 -53 -142q-39 -14 -105 -18z" />
<glyph unicode="U" horiz-adv-x="1439" d="M72 1319q0 47 20 88q190 -14 252 -14q90 0 201 12l28 2q0 -47 -20 -88q-94 -16 -154 -62q-53 -426 -53 -905q0 -100 81 -164.5t183 -64.5h277q96 59 131 223t57.5 390.5t26.5 377.5l6 152l-164 41q0 47 25 88q147 -14 223 -15l199 15q0 -47 -21 -88q-80 -8 -145 -76 q-47 -600 -78 -779.5t-62.5 -256t-95 -131t-159 -75t-246.5 -20.5q-197 0 -303.5 98.5t-106.5 220.5t25.5 456.5t36.5 545.5z" />
<glyph unicode="V" horiz-adv-x="1181" d="M37 1249q0 47 20 88q137 16 248 66q29 0 51.5 -25.5t22.5 -66.5q-61 -834 -62 -1188h267q80 27 176 143q154 186 198 482q18 121 19 196q0 238 -59 367q6 10 21 25.5t76.5 41t137.5 25.5q0 -240 -39 -498t-114.5 -458.5t-232.5 -333.5t-372 -133t-262 75q55 684 62 1194 h-158z" />
<glyph unicode="W" horiz-adv-x="1796" d="M123 1249q0 47 20 88q137 16 248 66q29 0 51.5 -25.5t22.5 -66.5q-61 -834 -62 -1188h140q55 0 119 80q113 143 198 385q27 414 45 602q94 31 187 31q-33 -158 -35 -222q-25 -260 -45 -733l-6 -143h143q74 0 174 125t161.5 304t61.5 384t-78 375q10 10 29 25.5t85.5 41 t141.5 25.5q0 -295 -56 -601t-155 -474q-203 -348 -473 -348q-76 0 -126 20t-62 41l-10 20l24 293l-20 13q-43 -109 -60.5 -138.5t-45 -79t-51 -70t-58.5 -48.5q-66 -51 -160 -51t-152.5 20t-78.5 41l-21 20q55 684 62 1188h-158z" />
<glyph unicode="X" horiz-adv-x="1007" d="M-145 43q127 100 217 225l325 449q-78 240 -133 373t-102 155h-187q0 47 21 88q117 16 227 66q61 -23 109 -105q55 -98 84 -180q55 -147 88 -250l381 531q49 0 96 -15.5t70 -31.5l22 -17q-137 -117 -229 -244l-283 -387l35 -104q23 -68 38 -110t35.5 -101t37 -97 t34.5 -77q39 -76 70 -88h201q0 -47 -21 -88q-137 -16 -248 -66q-61 25 -119.5 128.5t-90 192.5t-82.5 257l-408 -567q-49 0 -96 16t-70 33z" />
<glyph unicode="Y" horiz-adv-x="1112" d="M-10 -444q0 49 18 86h596q92 45 162 288q45 154 65 424l-20 13q-57 -133 -182 -256q-66 -63 -157 -102.5t-177 -39.5t-138.5 9.5t-74.5 21.5q-51 27 -53 45l-2 10q10 92 30.5 259t30.5 254t23 218q29 260 39 494h-152q0 47 20 88q127 16 238 66q29 0 51.5 -26t22.5 -67 q-90 -571 -129 -1218h182q96 0 238.5 146.5t212.5 299.5q61 520 102 795q102 31 194 31q-39 -158 -58 -302.5t-50 -415.5t-40 -349t-27.5 -204t-33 -179.5t-39 -139.5t-52 -118.5t-66.5 -80.5t-88 -65q-129 -43 -238 -43q-207 0 -389 43z" />
<glyph unicode="Z" horiz-adv-x="1204" d="M37 29v20l893 1231h-621q-35 -53 -51 -129l-4 -27q-57 14 -92 52q47 166 47 237q70 23 235.5 23t548.5 -68l33 45q80 0 137 -29l21 -8v-20l-885 -1233h700q35 53 50 129l6 27q57 -14 92 -52q-47 -176 -47 -247q-94 -23 -203 -23q-375 0 -676 55l-24 -32q-41 0 -91.5 14 t-68.5 35z" />
<glyph unicode="[" horiz-adv-x="626" d="M143 -307q8 111 41 475q84 907 99 1245l379 -24l-9 -66h-204q-45 -268 -85 -748.5t-42 -793.5h178l-6 -66q-182 -23 -351 -22z" />
<glyph unicode="\" horiz-adv-x="1011" d="M49 1456q31 10 57 10q61 0 87 -10q43 -186 224 -739t353 -991l-8 -33l-189 33q-248 899 -524 1730z" />
<glyph unicode="]" horiz-adv-x="626" d="M14 -287l9 70h204q45 268 85 748.5t42 793.5h-178l6 66q180 23 348 22q-8 -111 -43 -475q-82 -907 -96 -1245z" />
<glyph unicode="^" horiz-adv-x="972" d="M133 862l383 551l31 -8l334 -522q-53 -78 -86 -105h-21l-280 445l-297 -445q-25 10 -45 41z" />
<glyph unicode="_" horiz-adv-x="1036" d="M145 -31l11 70h186q283 0 510 20l33 -28l-27 -109h-702q-10 23 -11 47z" />
<glyph unicode="`" horiz-adv-x="819" d="M244 1444v20q50 65 116 92q90 -131 213 -284l41 -51v-15l-100 -39q-57 41 -124.5 111t-106.5 119z" />
<glyph unicode="a" horiz-adv-x="1118" d="M61 326q0 264 158 460.5t391 196.5q76 0 172 -59q4 37 9 59q102 31 194 31q-39 -158 -64.5 -340t-50.5 -551h172q0 -47 -20 -88q-137 -16 -248 -66q-31 0 -52.5 22.5t-21.5 69.5l39 293l-20 13q-76 -184 -154 -285.5t-205 -101.5t-213 93t-86 253zM217 383q0 -90 41 -163 t92 -97h99q119 23 288 430q8 86 33 287h-328q-80 -14 -152.5 -158.5t-72.5 -298.5z" />
<glyph unicode="b" horiz-adv-x="1064" d="M70 0q33 137 41 201q43 307 108 1263h-149q0 47 20 88q117 16 227 66q29 0 51.5 -25.5t22.5 -66.5l-92 -918l20 -12q76 184 154 285.5t205 101.5t213 -93t86 -253q0 -264 -157.5 -460.5t-391.5 -196.5l-319 20h-39zM274 123h322q80 14 152.5 158.5t72.5 298.5 q0 90 -41 162.5t-92 97.5h-98q-80 -16 -172 -181q-70 -129 -113 -237q-6 -96 -31 -299z" />
<glyph unicode="c" horiz-adv-x="894" d="M59 337q0 175 60.5 314.5t185.5 235.5t287 96q78 0 142.5 -28.5t92.5 -53.5q-43 -76 -69 -184l-10 -35q-41 -18 -101 -18q19 84 19 123.5t-31 52.5h-215q-84 -33 -146.5 -155t-62.5 -259q0 -160 59 -229q51 -59 95 -70l16 -4h364q0 -47 -20 -88q-217 -55 -311 -55 q-176 0 -265.5 91t-89.5 266z" />
<glyph unicode="d" horiz-adv-x="1136" d="M72 326q0 264 157.5 460.5t391.5 196.5q76 0 178 -63q31 299 41 544h-158q0 47 20 88q117 16 228 66q29 0 51.5 -25.5t22.5 -66.5q-68 -571 -121 -1403h170q0 -47 -21 -88q-137 -16 -248 -66q-31 0 -52 22.5t-21 69.5l39 293l-21 13q-76 -184 -153.5 -285.5 t-204.5 -101.5t-213 93t-86 253zM227 383q0 -90 41 -163t92 -97h99q125 25 299 450q2 16 30 267h-335q-80 -14 -153 -158.5t-73 -298.5z" />
<glyph unicode="e" horiz-adv-x="913" d="M96 362q0 141 61.5 281.5t187.5 240t286 99.5q100 0 147 -51t47 -125q0 -369 -577 -381q0 -281 168 -303h364q0 -47 -20 -88q-217 -55 -311 -55q-352 0 -353 382zM254 516q236 8 332 68.5t96 171.5q0 68 -57 84h-189q-68 -27 -117 -118t-65 -206z" />
<glyph unicode="f" horiz-adv-x="632" d="M109 840q0 47 20 88q10 0 32.5 10t39.5 25q39 35 51 100q16 156 54 267.5t83 164.5q88 102 168 102q53 0 168 -32l37 -13q0 -47 -21 -88h-217q-92 -117 -121 -370l-16 -142l229 11q0 -49 -20 -123h-219l-64 -840q-100 -31 -192 -31q33 137 48 254t60 617h-120z" />
<glyph unicode="g" horiz-adv-x="1075" d="M29 -444q0 49 18 86h467q92 45 162 288q45 154 65 424l-18 11q-76 -184 -153.5 -284.5t-204.5 -100.5t-213 93t-86 253q0 264 157.5 460.5t390.5 196.5q78 0 170 -57l9 57q102 31 194 31q-39 -158 -51 -245t-27.5 -236.5t-26 -247t-28.5 -217t-40.5 -194.5t-63.5 -153.5 t-95 -121.5q-123 -100 -321 -101q-84 0 -250 43zM221 383q0 -90 41 -163t92 -97h99q121 23 286 424q8 96 33 293h-326q-80 -14 -152.5 -158.5t-72.5 -298.5z" />
<glyph unicode="h" horiz-adv-x="1222" d="M113 -31q33 137 41 201q39 283 112 1294h-149q0 47 20 88q117 16 228 66q29 0 51 -25.5t22 -66.5l-92 -918l21 -12q63 145 188 266t283 121q76 0 121 -20.5t53 -40.5l6 -21q-53 -453 -64 -778h164q0 -47 -20 -88q-137 -16 -248 -66q-31 0 -52.5 22.5t-21.5 69.5 q45 287 78 779h-125q-82 0 -194.5 -128t-182.5 -282q-20 -254 -47 -430q-100 -31 -192 -31z" />
<glyph unicode="i" horiz-adv-x="587" d="M68 840q0 47 20 88q117 16 227 65q29 0 51.5 -25.5t22.5 -66.5q-47 -399 -63 -778h163q0 -47 -20 -88q-137 -16 -248 -66q-31 0 -52.5 22.5t-21.5 69.5q45 287 78 779h-157zM221 1260l8 63q11 31 49.5 50.5t79.5 19.5t64.5 -18.5t23.5 -41.5l-10 -73q-23 -61 -131 -62 q-41 0 -62.5 18.5t-21.5 43.5z" />
<glyph unicode="j" horiz-adv-x="497" d="M-82 -471q109 127 173.5 257t85 281.5t48.5 772.5h-178l21 88q137 16 247 65q29 0 50.5 -25.5t23.5 -66.5q-14 -178 -24 -348q-20 -330 -33 -430q-53 -440 -381 -655h-19q-14 28 -14 61zM221 1260l8 63q11 31 49.5 50.5t79.5 19.5t64.5 -18.5t23.5 -41.5l-10 -73 q-23 -61 -131 -62q-41 0 -62.5 18.5t-21.5 43.5z" />
<glyph unicode="k" horiz-adv-x="1114" d="M94 -31q33 137 41 201q41 301 123 1294h-149q0 47 20 88q117 16 227 66q29 0 51.5 -25.5t22.5 -66.5l-102 -918l20 -12q63 145 188.5 266t282.5 121q76 0 121 -20.5t51 -40.5l8 -21q-16 -184 -129.5 -317t-214.5 -174l189 -287h200q0 -47 -20 -88q-137 -16 -248 -66 q-49 0 -76 49l-217 371v21q158 70 247 172t106 258h-125q-82 0 -195 -128t-182 -282q-20 -254 -47 -430q-100 -31 -193 -31z" />
<glyph unicode="l" horiz-adv-x="550" d="M94 1464q0 47 21 88q117 16 227 66q29 0 51.5 -25.5t22.5 -66.5q-39 -328 -123 -1403h160q0 -47 -21 -88q-137 -16 -248 -66q-31 0 -52 22.5t-21 69.5q109 911 141 1403h-158z" />
<glyph unicode="m" horiz-adv-x="1845" d="M113 840q0 47 20 88q117 16 227 65q29 0 51.5 -25.5t22.5 -66.5l-39 -293l21 -12q170 387 430 387q76 0 121 -20.5t53 -40.5l6 -21q-2 -55 -27 -293l21 -12q170 387 430 387q76 0 121 -20.5t51 -40.5l8 -21q-47 -395 -63 -778h164q0 -47 -21 -88q-137 -16 -248 -66 q-31 0 -52 22.5t-21 69.5q45 287 77 779h-125q-72 0 -178 -143.5t-184 -309.5q-23 -301 -35 -387q-100 -31 -192 -31q33 137 41 201q37 178 69 670h-125q-80 0 -173 -124t-163 -286q-20 -254 -47 -430q-100 -31 -192 -31q33 137 57.5 321.5t42.5 549.5h-149z" />
<glyph unicode="n" horiz-adv-x="1257" d="M113 840q0 47 20 88q117 16 227 65q29 0 51.5 -25.5t22.5 -66.5l-39 -293l21 -12q63 145 188 266t283 121q76 0 121 -20.5t53 -40.5l6 -21q-47 -395 -63 -778h163q0 -47 -20 -88q-137 -16 -248 -66q-31 0 -52.5 22.5t-21.5 69.5q45 287 78 779h-125q-82 0 -194.5 -128 t-182.5 -282q-20 -254 -47 -430q-100 -31 -192 -31q33 137 57.5 321.5t42.5 549.5h-149z" />
<glyph unicode="o" horiz-adv-x="1003" d="M63 360q0 143 58.5 282.5t182.5 240t294 100.5q350 0 350 -381q0 -143 -58.5 -282.5t-182 -239.5t-293.5 -100q-350 0 -351 380zM217 410.5q0 -146.5 54.5 -210t93.5 -73.5l16 -4h197q86 33 151.5 158t65.5 256q0 162 -58 229q-51 59 -90 70l-16 4h-197 q-86 -33 -151.5 -158t-65.5 -271.5z" />
<glyph unicode="p" horiz-adv-x="1157" d="M-23 -522q0 47 21 88q76 18 135 55q51 313 73.5 556t47.5 663h-150q0 47 21 88q117 16 227 65q29 0 51.5 -25.5t22.5 -66.5l-39 -293l21 -12q76 184 153.5 285.5t204.5 101.5t213 -93t86 -253q0 -264 -158 -460.5t-391 -196.5q-76 0 -172 28q-25 -248 -33 -407l162 -35 q0 -47 -20 -88q-164 20 -220 20q-96 0 -217 -14zM354 123h330q80 14 152.5 158.5t72.5 298.5q0 90 -41 162.5t-92 97.5h-98q-127 -25 -293 -441z" />
<glyph unicode="q" horiz-adv-x="1142" d="M96 326q0 264 158 460.5t391 196.5q76 0 172 -59q4 37 8 59q102 31 195 31q-37 -158 -57.5 -281t-55.5 -487.5t-49 -642.5l170 -37q0 -47 -20 -88q-147 20 -209 20q-111 0 -228 -14l-39 -6q0 47 21 88q102 25 160 74q33 315 53 616l8 98l-20 13q-76 -185 -154 -286 t-205 -101t-213 93t-86 253zM252 383q0 -90 41 -163t92 -97h98q119 23 289 430q8 86 33 287h-328q-80 -14 -152.5 -158.5t-72.5 -298.5z" />
<glyph unicode="r" horiz-adv-x="860" d="M76 840q0 47 20 88q117 16 228 65q29 0 51 -25.5t22 -66.5l-35 -246l21 -12q51 117 158.5 228.5t208.5 111.5q39 0 70.5 -16.5t43.5 -32.5l13 -16q-51 -90 -78 -201l-11 -35q-41 -18 -100 -18q18 84 19 106q0 57 -39 70q-45 0 -141.5 -116t-157.5 -249q-27 -307 -52 -475 q-100 -31 -192 -31q33 137 57.5 321.5t42.5 549.5h-149z" />
<glyph unicode="s" horiz-adv-x="929" d="M84 113q45 78 66 168l6 26q41 18 100 19q-18 -68 -18 -117q0 -72 116 -96h213q78 45 78 137q0 39 -20.5 62.5t-31.5 34.5t-38 28.5t-37 23.5q-51 31 -99 56.5t-74 42t-64 49.5q-70 59 -70 153q0 137 103.5 210t253 73t272.5 -82q-47 -88 -72 -188l-8 -31 q-41 -18 -101 -18q18 84 19 106q0 66 -45 80h-199q-98 -14 -98 -115q0 -35 35 -70.5t69.5 -57t99 -54.5t107.5 -60.5t87 -77.5t44 -102q0 -160 -104.5 -246.5t-282.5 -86.5q-109 0 -185.5 33.5t-99.5 66.5z" />
<glyph unicode="t" horiz-adv-x="681" d="M106 840q0 47 21 88q4 2 11 5t27.5 19.5t37.5 38.5q45 63 57 170q66 37 137 37q-10 -117 -26 -246l243 11q0 -49 -20 -123h-236q-39 -367 -49 -717h246q0 -47 -20 -88q-178 -16 -289 -66q-115 0 -115 92q66 500 82 779h-107z" />
<glyph unicode="u" horiz-adv-x="1243" d="M96 840q0 47 21 88q117 16 227 65q29 0 51.5 -25.5t22.5 -66.5q-45 -287 -78 -778h125q84 0 198.5 133t180.5 287q29 262 55 440q102 31 195 31q-39 -158 -64.5 -340t-50.5 -551h172q0 -47 -21 -88q-137 -16 -247 -66q-31 0 -52.5 22.5t-21.5 69.5l39 293l-21 13 q-63 -145 -188 -266t-283 -121q-76 0 -121 20t-51 41l-8 20q45 403 62 779h-142z" />
<glyph unicode="v" horiz-adv-x="1071" d="M84 840q0 47 20 88q117 16 228 65q29 0 51.5 -24.5t22.5 -67.5q-58 -424 -58 -778h195q166 57 243 311q35 115 35 247t-49 237q81 75 217 75h4q0 -504 -174 -758.5t-405 -254.5q-82 0 -139.5 20t-73.5 41l-17 20q41 520 45 779h-145z" />
<glyph unicode="w" horiz-adv-x="1568" d="M113 840q0 47 20 88q117 16 227 65q29 0 51.5 -25.5t22.5 -66.5q-57 -424 -57 -778h92q80 0 164 133t147 307q6 115 27 342q94 31 186 31q-33 -158 -35 -221q-27 -274 -28 -518l-2 -74h121q80 0 149.5 66.5t105 194.5t35.5 263t-63 271q8 8 22.5 20t68.5 33.5t116 21.5 q0 -524 -154 -796q-123 -217 -377 -217q-76 0 -123 20t-55 41l-10 20l24 293l-20 13q-8 -18 -29.5 -69.5t-34 -77t-36 -70t-47 -69t-56.5 -50.5q-63 -51 -151 -51t-135.5 20t-57.5 41l-8 20q41 520 45 779h-145z" />
<glyph unicode="x" horiz-adv-x="1060" d="M35 31q113 88 158 145l256 332l-23 67q-14 43 -21.5 66t-19.5 54.5t-20.5 50t-20.5 38.5q-20 39 -45 56h-186q0 47 20 88q117 16 227 65q66 -27 112 -107.5t97 -244.5l269 352q82 0 143 -35l20 -10q-117 -100 -161 -164l-228 -280q109 -348 179 -381h200q0 -47 -20 -88 q-137 -16 -248 -66q-70 25 -115 112t-114 292l-299 -404q-49 0 -89 15.5t-57 31.5z" />
<glyph unicode="y" horiz-adv-x="1169" d="M86 840q0 47 20 88q117 16 228 65q29 0 51.5 -25.5t22.5 -66.5q-51 -287 -84 -778h125q84 0 198.5 133t179.5 287q29 262 56 440q102 31 194 31q-39 -158 -51 -245t-27.5 -236.5t-25.5 -247t-28.5 -217t-41 -194.5t-63.5 -153.5t-95 -121.5q-123 -100 -321 -101 q-84 0 -250 43l-55 15q0 39 18 86h467q92 45 162 288q45 154 65 424l-20 13q-63 -145 -188 -266t-283 -121q-76 0 -121 20t-51 41l-8 20q47 418 67 779h-141z" />
<glyph unicode="z" horiz-adv-x="970" d="M45 29v20l649 791h-377q-35 -53 -51 -129l-4 -27q-57 14 -92 51q47 164 47 236q6 12 113.5 12t435.5 -57l47 57q82 0 127 -37v-20l-651 -803h432q35 53 49 129l6 27q57 -14 92 -52q-47 -164 -47 -235q-18 -12 -187 -12t-421 49l-39 -49q-84 0 -129 49z" />
<glyph unicode="{" horiz-adv-x="645" d="M111 539q0 47 20 88q16 10 39 27.5t68 74.5t55 115q29 104 36 246.5t15 185.5q39 137 168 137q68 0 143 -20l27 -9l-8 -51h-105q-45 -10 -65.5 -29.5t-28.5 -60.5t-23.5 -202.5t-28.5 -233.5t-59.5 -134.5t-89.5 -90.5q43 -27 80 -81.5t37 -128t-20.5 -271t-20.5 -238.5 q0 -66 64 -88h106l-8 -54q-78 -27 -150.5 -26.5t-110.5 36.5t-38 96t23.5 232t23.5 251t-38 131.5t-75 74.5z" />
<glyph unicode="|" horiz-adv-x="868" d="M258 -399q20 125 79.5 814t59.5 978l160 32l29 -32q-35 -205 -113 -935t-78 -857q-37 -11 -80 -11z" />
<glyph unicode="}" horiz-adv-x="686" d="M-20 -276l8 51h104q45 10 65.5 29.5t29 60.5t23.5 202.5t28.5 233.5t59.5 134.5t89 90.5q-43 27 -80 81.5t-37 128t20.5 271t20.5 238.5q0 66 -63 88h-107l9 53q78 27 150.5 27t110.5 -36t38 -96t-24 -232t-24 -251t37 -131.5t74 -74.5l39 -23q0 -47 -21 -88 q-16 -10 -38.5 -27.5t-67.5 -74.5t-55 -115q-29 -104 -36 -246.5t-16 -185.5q-38 -137 -167 -137q-68 0 -146 22z" />
<glyph unicode="~" horiz-adv-x="970" d="M137 567l35 181q43 14 105.5 14t197.5 -39t154 -39h47q23 25 39 64h76l14 -17l-35 -180q-43 -14 -108.5 -14t-197.5 38.5t-151 38.5h-47q-23 -25 -39 -63h-75z" />
<glyph unicode="&#xa1;" horiz-adv-x="530" d="M106 -492q41 240 85.5 583t44.5 460q26 10 69 10l47 -10q-16 -100 -36.5 -422t-20.5 -621l-160 -32zM205 786l10 74q23 61 131 62q41 0 62.5 -18.5t21.5 -43.5l-8 -63q-10 -31 -49 -50.5t-80 -19.5t-64.5 18.5t-23.5 40.5z" />
<glyph unicode="&#xa2;" horiz-adv-x="894" d="M59 367.5q0 183.5 99.5 354.5t269.5 232q4 53 4 146l146 33l28 -33l-18 -117q80 0 145.5 -28.5t93.5 -53.5q-43 -76 -69 -184l-10 -35q-41 -18 -101 -18q18 82 18.5 122.5t-30.5 53.5h-70q-61 -416 -88 -697h268q0 -47 -20 -88q-154 -41 -258 -53q-8 -86 -8 -125 q-37 -10 -80 -10l-57 10l16 125q-139 16 -209 99t-70 266.5zM211 426q0 -240 145 -279q41 369 66 693q-86 -33 -148.5 -155t-62.5 -259z" />
<glyph unicode="&#xa3;" horiz-adv-x="1120" d="M119 594l10 70h135q14 143 33 268q25 164 135.5 248t225 84t180 -73t65.5 -177q-23 -31 -102 -47h-21q0 57 -35.5 125.5t-68.5 72.5h-92q-49 -23 -86 -81t-50.5 -131.5t-35.5 -288.5q117 0 313 18l31 -27l-27 -108h-328q-23 -225 -32 -379q39 0 157.5 -31t190.5 -31h51 l51 50h64l-29 -158q-90 -39 -157.5 -39t-205 37t-190.5 37h-25l-51 -53h-100l86 176q41 344 41 391h-123q-10 23 -10 47z" />
<glyph unicode="&#xa4;" horiz-adv-x="1409" d="M125 248l172 158q-33 74 -33 208t82 275l-131 135v31q43 78 111 108l129 -135q141 127 308 127t257 -82l141 133q51 -8 82 -67q8 -14 10 -31l-157 -143q33 -82 32 -185q0 -182 -106 -336l162 -165v-31q-29 -61 -113 -107l-168 172q-127 -96 -285.5 -96t-248.5 84 l-154 -141q-35 0 -61 24q-29 31 -29 64zM408 638q0 -134 57 -203t96 -79l19 -6h184q84 33 152.5 141.5t68.5 227.5q0 150 -59 221q-55 66 -95 76l-18 6h-184q-84 -33 -152.5 -141.5t-68.5 -242.5z" />
<glyph unicode="&#xa5;" horiz-adv-x="1112" d="M119 248l10 65h240q12 98 18 191h-240q-10 20 -10 45l10 65h242l-250 600q68 49 162 50q123 -352 219 -574q113 190 328 574q74 0 100 -23q-166 -258 -368 -625q94 2 243 17l31 -27l-27 -102h-268l-27 -191q106 2 271 19l31 -27l-25 -102h-289q-12 -92 -20 -203 q-49 -20 -86 -20q-59 0 -101 20q31 145 39 203h-223q-10 20 -10 45z" />
<glyph unicode="&#xa6;" horiz-adv-x="878" d="M246 -399q18 106 50 379.5t38 412.5q35 10 78 10l57 -10q-86 -631 -86 -792q-37 -10 -80 -11zM350 596q47 377 47 797l160 32l29 -32q-84 -500 -103 -797q-41 -10 -84 -10z" />
<glyph unicode="&#xa7;" horiz-adv-x="931" d="M53 -330q8 45 37 90h352q88 29 88 136q0 66 -68.5 132t-149.5 117.5t-149.5 135.5t-68.5 178q0 221 205 291q-72 78 -72 191.5t96.5 218t292.5 104.5q111 0 195 -37l27 -13q-8 -45 -37 -90h-352q-35 -10 -62 -49t-27 -91t45.5 -104.5t109 -98.5t128 -95t109.5 -117.5 t45 -146.5q0 -221 -205 -291q70 -84 70 -178q0 -129 -95.5 -230.5t-292.5 -101.5q-111 0 -192 37zM240 498q0 -84 82 -156q47 -41 99 -76t66 -45h97q66 61 65.5 149.5t-54.5 141.5t-115.5 96t-76.5 54h-98q-66 -61 -65 -164z" />
<glyph unicode="&#xa8;" horiz-adv-x="819" d="M125 1262l8 63q10 31 49 50.5t80 19.5t64.5 -18.5t23.5 -41.5l-10 -73q-23 -61 -131 -62q-41 0 -62.5 18.5t-21.5 43.5zM530 1262l9 63q10 31 49 50.5t80 19.5t64.5 -18.5t23.5 -41.5l-11 -73q-23 -61 -131 -62q-41 0 -62.5 18.5t-21.5 43.5z" />
<glyph unicode="&#xa9;" horiz-adv-x="1441" d="M88 618q0 315 178 537q90 109 239.5 173.5t354.5 64.5t353.5 -131.5t148.5 -358.5q0 -303 -182 -532q-88 -113 -237.5 -180.5t-348.5 -67.5t-352.5 138t-153.5 357zM225 708q0 -171 85 -298t245 -156h309q170 80 265.5 235.5t95.5 329.5t-78 302t-240 159h-313 q-170 -82 -269.5 -241.5t-99.5 -330.5zM418 690q0 166 112.5 302t284.5 136q55 0 108.5 -20.5t67.5 -36.5q-33 -59 -49 -135l-4 -27q-43 -12 -84 -12q12 57 12 86t-18 39h-154q-61 -23 -105 -107t-44 -170t30.5 -134t59.5 -58l31 -12h258q0 -33 -17 -82q-152 -39 -217 -39 q-272 0 -272 270z" />
<glyph unicode="&#xaa;" horiz-adv-x="700" d="M35 1008q0 156 92 270.5t231 114.5q37 0 101 -25q0 10 4 27q76 18 129 18q-45 -199 -68 -502h115q0 -37 -27 -71q-86 -12 -153 -39q-18 0 -33.5 14t-15.5 39l22 172l-10 8q-43 -109 -90 -168t-124 -59t-125 49t-48 152zM150 1059q0 -135 61 -168h29q86 20 196 305l13 104 h-158q-58 -20 -99.5 -96t-41.5 -145z" />
<glyph unicode="&#xab;" horiz-adv-x="1273" d="M137 518l8 82q133 66 267.5 156t201.5 159l125 -71v-37q-68 -66 -190.5 -149.5t-212.5 -122.5q219 -133 360 -222v-37l-51 -57q-96 72 -223 146.5t-205 113.5zM625 510l8 82q133 66 267 156t202 159l125 -71v-37q-68 -66 -191 -150t-213 -123q219 -133 361 -221v-37 l-51 -57q-96 72 -223.5 146.5t-204.5 113.5z" />
<glyph unicode="&#xac;" horiz-adv-x="1294" d="M199 653l10 70h371q283 0 510 20l32 -28q-27 -150 -32 -309l-3 -60q-29 -10 -72.5 -10t-43.5 12l26 238h-788q-10 43 -10 67z" />
<glyph unicode="&#xad;" horiz-adv-x="833" d="M98 653l11 70h186q180 0 407 20l33 -28l-26 -129h-600q-10 43 -11 67z" />
<glyph unicode="&#xae;" horiz-adv-x="1441" d="M88 618q0 315 178 537q90 109 239.5 173.5t354.5 64.5t353.5 -131.5t148.5 -358.5q0 -303 -182 -532q-88 -113 -237.5 -180.5t-348.5 -67.5t-352.5 138t-153.5 357zM225 708q0 -171 85 -298t245 -156h309q170 80 265.5 235.5t95.5 329.5t-78 302t-240 159h-313 q-170 -82 -269.5 -241.5t-99.5 -330.5zM436 434l8 64q27 10 52 28q14 129 43 545l-54 10l11 60q63 -4 108 -4h29l135 8q98 0 163.5 -48t65.5 -131t-52 -143.5t-134 -91.5q39 -88 76 -141t53 -84l59 -12l-12 -64q-104 6 -168 6q-29 74 -127 269h-61q-10 -164 -10 -199l59 -8 l-10 -64q-102 6 -140 6h-22zM635 770h100q68 14 106 59t38 97q0 113 -84 129h-136q-14 -125 -24 -285z" />
<glyph unicode="&#xaf;" horiz-adv-x="980" d="M199 1282l10 70h186q180 0 408 20l33 -29l-27 -108h-600q-10 23 -10 47z" />
<glyph unicode="&#xb0;" horiz-adv-x="475" d="M0 1133.5q0 89.5 60 164t169 74.5q76 0 124 -41t48 -130t-60 -163.5t-169 -74.5q-76 0 -124 40.5t-48 130zM94 1156q0 -46 21.5 -73.5t48.5 -33.5h67q31 10 53.5 47t22.5 83t-21.5 73.5t-47.5 33.5h-68q-31 -10 -53.5 -47t-22.5 -83z" />
<glyph unicode="&#xb1;" horiz-adv-x="968" d="M154 357.5q0 27.5 10 58.5h186q180 0 408 20l33 -28l-27 -113h-600q-10 35 -10 62.5zM176 817l10 70h248l23 262q29 10 62.5 10t53.5 -10l-22 -260q139 10 229 18l33 -28l-27 -109h-243l-21 -244q-29 -10 -72.5 -10t-43.5 12l18 242h-238q-10 23 -10 47z" />
<glyph unicode="&#xb2;" horiz-adv-x="552" d="M27 846v10q68 84 158.5 167t135 131t44.5 103.5t-46 71.5h-104q-20 -16 -45 -86q-20 0 -49 25q2 63 18 104q86 41 163 41t128 -40t51 -94t-28.5 -102.5t-62.5 -81t-100.5 -91t-105.5 -99.5h219q16 25 33 82q33 -4 62 -29q-27 -102 -29 -147q-66 -6 -153 -6t-193 31 l-23 -27q-37 8 -73 37z" />
<glyph unicode="&#xb3;" horiz-adv-x="546" d="M25 666q6 47 30 75h144q49 14 88 68.5t39 103t-34 81t-79 44.5l-16 -12q-31 0 -52 29v10q57 45 108.5 100.5t51.5 99.5t-43 64h-104q-20 -16 -45 -86q-18 0 -47 25q2 63 18 104q84 41 162 41q166 0 166 -139q0 -72 -105 -164q129 -33 129 -166q0 -111 -104.5 -205 t-218.5 -94q-47 0 -88 21z" />
<glyph unicode="&#xb4;" horiz-adv-x="819" d="M248 1206v15q148 145 248 295q68 -12 143 -52v-20q-152 -182 -291 -277z" />
<glyph unicode="&#xb6;" horiz-adv-x="1705" d="M92 905q0 168 87 286t220 175t287 57h371q283 0 510 21l32 -29l-26 -108h-215q-41 -291 -110.5 -940.5t-69.5 -765.5q-37 -10 -80 -11l-58 11q18 123 74.5 756.5t63.5 949.5h-314q-41 -291 -110.5 -940.5t-69.5 -765.5q-37 -10 -80 -11l-57 11q31 199 94 974h-158 q-178 0 -284.5 81t-106.5 249z" />
<glyph unicode="&#xb7;" horiz-adv-x="436" d="M96 465l8 63q11 31 50 50.5t79.5 19.5t64.5 -18.5t24 -40.5l-11 -74q-23 -61 -131 -62q-41 0 -62.5 18.5t-21.5 43.5z" />
<glyph unicode="&#xb8;" horiz-adv-x="759" d="M256 -389q12 37 41 78q72 0 106.5 27.5t34.5 64.5t-22 53h-86l-13 19l48 141q25 6 43 6l36 -6l-12 -64h68q57 -33 57 -102q0 -98 -85 -156.5t-216 -60.5z" />
<glyph unicode="&#xb9;" horiz-adv-x="530" d="M59 1186v8q125 102 203 190l98 29l21 -18q-45 -246 -51 -494l145 -31l-16 -63q-141 12 -221 12l-177 -12q0 33 19 61q80 20 129 52q33 197 33 352l2 8l-117 -129q-43 0 -68 35z" />
<glyph unicode="&#xba;" horiz-adv-x="616" d="M39 1054q0 122 77 230.5t220 108.5q96 0 157.5 -62.5t61.5 -184.5t-77 -230.5t-220 -108.5q-96 0 -157.5 62.5t-61.5 184.5zM145 1077q0 -131 97 -178h100q43 16 75 82t32 141q0 131 -97 178h-100q-43 -16 -75 -81.5t-32 -141.5z" />
<glyph unicode="&#xbb;" horiz-adv-x="1273" d="M137 340v37q68 66 191 149.5t213 122.5q-219 133 -361 221v37l51 58q96 -72 223.5 -147t204.5 -113l80 -39l-8 -82q-133 -66 -267 -156t-202 -160zM625 332v37q68 66 190.5 149.5t212.5 122.5q-219 133 -360 221v37l51 57q96 -72 223 -146.5t205 -113.5l80 -39l-8 -82 q-133 -66 -267.5 -155.5t-201.5 -159.5z" />
<glyph unicode="&#xbc;" horiz-adv-x="1517" d="M168 705q0 33 18 61q82 20 129 53q37 201 37 348l2 9l-116 -129q-43 0 -68 34v9q125 102 203 190l98 29l21 -19q-45 -252 -56 -491l146 -31l-17 -63q-141 12 -221 12zM219 -20q276 352 458.5 607t471.5 693l172 33l8 -33q-283 -369 -450.5 -600t-493.5 -700 q-53 -11 -94 -11zM829 4v68l338 465l90 16l15 -16q-23 -201 -37 -461h104q0 -49 -20 -86h-88q-2 -59 -2 -166q-33 -8 -64 -8l-63 8l20 166h-278zM932 76h201q14 131 28 344q-168 -236 -229 -344z" />
<glyph unicode="&#xbd;" horiz-adv-x="1517" d="M127 705q0 33 18 61q82 20 129 53q37 201 37 348l2 9l-116 -129q-43 0 -68 34v9q125 102 203 190l98 29l21 -19q-45 -252 -56 -491l146 -31l-17 -63q-141 12 -221 12zM184 -20q276 352 458.5 607t471.5 693l172 33l8 -33q-283 -369 -450.5 -600t-493.5 -700 q-53 -11 -94 -11zM893 16v11q68 84 159 166.5t135 131t44 103.5t-45 72h-105q-20 -16 -45 -86q-20 0 -49 24q2 63 19 105q86 41 162.5 41t128 -40t51.5 -94.5t-29 -102.5t-62.5 -81t-100 -91t-105.5 -99h219q16 25 33 82q33 -4 61 -29q-27 -102 -29 -147q-66 -6 -146.5 -6.5 t-199.5 30.5q-16 -16 -22 -26q-37 8 -74 36z" />
<glyph unicode="&#xbe;" horiz-adv-x="1517" d="M109 563q6 47 30 76h144q49 14 88 68.5t39 102.5t-34 81t-79 45l-16 -12q-31 0 -52 28v11q57 45 108.5 100t51.5 99t-43 65h-104q-20 -16 -45 -86q-18 0 -47 24q2 63 18 105q84 41 162 41q166 0 166 -140q0 -72 -105 -163q129 -33 129 -166q0 -111 -104.5 -205 t-218.5 -94q-47 0 -88 20zM199 -20q276 352 458.5 607t470.5 693l172 33l9 -33q-283 -369 -451 -600t-493 -700q-54 -11 -95 -11zM850 4v68l338 465l90 16l14 -16q-23 -201 -37 -461h105q0 -49 -21 -86h-88q-2 -59 -2 -166q-33 -8 -63 -8l-64 8l21 166h-279zM952 76h201 q15 131 29 344q-158 -215 -230 -344z" />
<glyph unicode="&#xbf;" horiz-adv-x="790" d="M29 -82q0 164 113.5 276.5t275.5 112.5l39 244q27 10 69 10l47 -10l-28 -336l-25 -25h-229q-121 -63 -121 -215q0 -125 108.5 -246.5t227.5 -146.5v-37l-109 -71q-133 41 -250.5 160.5t-117.5 283.5zM446 786l11 74q23 61 131 62q41 0 62.5 -18.5t21.5 -43.5l-8 -63 q-11 -31 -50 -50.5t-79.5 -19.5t-64.5 18.5t-24 40.5z" />
<glyph unicode="&#xc0;" d="M-20 -25q0 47 20 88q66 18 121 58q383 676 612 1184l-16 65q88 43 188 43q193 -870 322 -1319l170 -31q0 -47 -21 -88q-211 14 -286 15l-216 -15q0 47 21 88q59 14 113 41q-63 326 -74 371q-240 6 -316.5 6t-179.5 -8l-180 -369l176 -41q0 -47 -20 -88q-164 14 -240 15z M489 580q96 -6 197.5 -6.5t224.5 4.5q-25 117 -135 561q-109 -199 -287 -559zM709 1726v21q55 71 116 96q96 -143 191 -246l37 -38v-15l-101 -39q-61 41 -122.5 96.5t-92.5 90.5z" />
<glyph unicode="&#xc1;" d="M-20 -25q0 47 20 88q66 18 121 58q383 676 612 1184l-16 65q88 43 188 43q193 -870 322 -1319l170 -31q0 -47 -21 -88q-211 14 -286 15l-216 -15q0 47 21 88q59 14 113 41q-63 326 -74 371q-240 6 -316.5 6t-179.5 -8l-180 -369l176 -41q0 -47 -20 -88q-164 14 -240 15z M489 580q96 -6 197.5 -6.5t224.5 4.5q-25 117 -135 561q-109 -199 -287 -559zM659 1544v15q126 114 226 264q68 -12 143 -51v-21q-129 -152 -268 -246z" />
<glyph unicode="&#xc2;" d="M-20 -25q0 47 20 88q66 18 121 58q383 676 612 1184l-16 65q88 43 188 43q193 -870 322 -1319l170 -31q0 -47 -21 -88q-211 14 -286 15l-216 -15q0 47 21 88q59 14 113 41q-63 326 -74 371q-240 6 -316.5 6t-179.5 -8l-180 -369l176 -41q0 -47 -20 -88q-164 14 -240 15z M489 580q96 -6 197.5 -6.5t224.5 4.5q-25 117 -135 561q-109 -199 -287 -559zM543 1554v17q182 131 245 227l109 55q96 -152 225 -282v-17l-106 -49q-111 94 -178 199q-82 -94 -205 -172z" />
<glyph unicode="&#xc3;" d="M-20 -25q0 47 20 88q66 18 121 58q383 676 612 1184l-16 65q88 43 188 43q193 -870 322 -1319l170 -31q0 -47 -21 -88q-211 14 -286 15l-216 -15q0 47 21 88q59 14 113 41q-63 326 -74 371q-240 6 -316.5 6t-179.5 -8l-180 -369l176 -41q0 -47 -20 -88q-164 14 -240 15z M489 580q96 -6 197.5 -6.5t224.5 4.5q-25 117 -135 561q-109 -199 -287 -559zM547 1536l35 180q43 14 98 14.5t164.5 -38.5t132.5 -39h47q23 25 39 63h76l14 -16l-35 -180q-43 -14 -101.5 -14.5t-166 38.5t-127.5 39h-47q-23 -25 -39 -63h-76z" />
<glyph unicode="&#xc4;" d="M-20 -25q0 47 20 88q66 18 121 58q383 676 612 1184l-16 65q88 43 188 43q193 -870 322 -1319l170 -31q0 -47 -21 -88q-211 14 -286 15l-216 -15q0 47 21 88q59 14 113 41q-63 326 -74 371q-240 6 -316.5 6t-179.5 -8l-180 -369l176 -41q0 -47 -20 -88q-164 14 -240 15z M489 580q96 -6 197.5 -6.5t224.5 4.5q-25 117 -135 561q-109 -199 -287 -559zM520 1567l8 63q11 31 49.5 50.5t79.5 19.5t64.5 -18.5t23.5 -41.5l-10 -73q-23 -61 -131 -62q-41 0 -62.5 18.5t-21.5 43.5zM926 1567l8 63q10 31 49 50.5t80 19.5t64.5 -18.5t23.5 -41.5 l-10 -73q-23 -61 -131 -62q-41 0 -62.5 18.5t-21.5 43.5z" />
<glyph unicode="&#xc5;" d="M-20 -25q0 47 20 88q66 18 121 58q383 676 612 1184l-16 65q88 43 188 43q193 -870 322 -1319l170 -31q0 -47 -21 -88q-211 14 -286 15l-216 -15q0 47 21 88q59 14 113 41q-63 326 -74 371q-240 6 -316.5 6t-179.5 -8l-180 -369l176 -41q0 -47 -20 -88q-164 14 -240 15z M489 580q96 -6 197.5 -6.5t224.5 4.5q-25 117 -135 561q-109 -199 -287 -559zM684 1630q0 76 47 134.5t118 58.5t108.5 -32t37.5 -100.5t-47 -127t-119 -58.5q-145 0 -145 125zM773 1646q-1 -42 38 -51h39q18 4 34.5 25.5t17.5 64t-38 50.5h-39q-18 -4 -34.5 -25.5 t-17.5 -63.5z" />
<glyph unicode="&#xc6;" horiz-adv-x="2166" d="M111 -25q0 47 20 88q84 25 141 76q518 696 818 1159l-93 21q0 47 21 88q164 -14 239 -14h725q18 -16 33 -52q-43 -76 -69 -184l-11 -35q-41 -18 -100 -18q18 82 18 123t-30 53h-498q-39 -336 -53 -522h459q33 49 49 110q14 6 41 6l45 -8q-43 -135 -64 -346q-16 -8 -41 -8 l-35 6q0 82 -16 137h-444q-18 -250 -31 -532h530q39 57 58 131l6 27q63 -12 86 -43l8 -13q-41 -102 -53 -225h-768l-195 -14q0 47 21 88q74 23 131 67q27 233 35 334q-203 6 -279 6t-153 -8q-45 -70 -242 -375l145 -35q0 -47 -20 -88q-164 14 -240 15zM729 578 q98 -4 181 -4.5t194 4.5q18 244 43 622q-180 -255 -418 -622z" />
<glyph unicode="&#xc7;" horiz-adv-x="1191" d="M35 494q0 285 129 522q139 256 385 356q131 53 259 53t209 -37.5t105 -87.5q-43 -78 -69 -202l-11 -41q-51 -18 -110 -19q16 45 16 105q0 100 -53 137h-328q-172 -92 -266 -281.5t-94 -381t72.5 -325.5t212.5 -169h489q0 -47 -20 -88q-227 -59 -396 -72l-10 -53h68 q57 -33 57 -103q0 -98 -85 -156.5t-216 -60.5q12 37 41 78q72 0 106.5 28t34.5 64.5t-22 53.5h-86l-13 18l41 127q-209 8 -327.5 158.5t-118.5 376.5z" />
<glyph unicode="&#xc8;" horiz-adv-x="1175" d="M25 -14q0 47 20 88q74 23 131 67q53 457 92 1141l-153 37q0 47 20 88q131 -14 213 -14h752q18 -16 33 -52q-43 -76 -72 -184l-8 -35q-41 -18 -101 -18q18 82 18.5 123t-30.5 53h-498q-39 -336 -53 -522h459q33 49 49 110q14 6 41 6l45 -8q-43 -135 -63 -346 q-16 -8 -41 -8l-35 6q0 82 -17 137h-444q-18 -250 -31 -532h531q39 57 57 131l6 27q63 -12 86 -43l8 -13q-41 -102 -53 -225h-768zM541 1726v21q55 71 116 96q96 -143 191 -246l37 -38v-15l-101 -39q-61 41 -122.5 96.5t-92.5 90.5z" />
<glyph unicode="&#xc9;" horiz-adv-x="1175" d="M25 -14q0 47 20 88q74 23 131 67q53 457 92 1141l-153 37q0 47 20 88q131 -14 213 -14h752q18 -16 33 -52q-43 -76 -72 -184l-8 -35q-41 -18 -101 -18q18 82 18.5 123t-30.5 53h-498q-39 -336 -53 -522h459q33 49 49 110q14 6 41 6l45 -8q-43 -135 -63 -346 q-16 -8 -41 -8l-35 6q0 82 -17 137h-444q-18 -250 -31 -532h531q39 57 57 131l6 27q63 -12 86 -43l8 -13q-41 -102 -53 -225h-768zM561 1544v15q125 114 225 264q68 -12 144 -51v-21q-129 -152 -268 -246z" />
<glyph unicode="&#xca;" horiz-adv-x="1175" d="M25 -14q0 47 20 88q74 23 131 67q53 457 92 1141l-153 37q0 47 20 88q131 -14 213 -14h752q18 -16 33 -52q-43 -76 -72 -184l-8 -35q-41 -18 -101 -18q18 82 18.5 123t-30.5 53h-498q-39 -336 -53 -522h459q33 49 49 110q14 6 41 6l45 -8q-43 -135 -63 -346 q-16 -8 -41 -8l-35 6q0 82 -17 137h-444q-18 -250 -31 -532h531q39 57 57 131l6 27q63 -12 86 -43l8 -13q-41 -102 -53 -225h-768zM381 1575v16q183 132 246 228l108 55q96 -152 226 -283v-16l-107 -49q-111 94 -178 198q-82 -94 -205 -172z" />
<glyph unicode="&#xcb;" horiz-adv-x="1175" d="M25 -14q0 47 20 88q74 23 131 67q53 457 92 1141l-153 37q0 47 20 88q131 -14 213 -14h752q18 -16 33 -52q-43 -76 -72 -184l-8 -35q-41 -18 -101 -18q18 82 18.5 123t-30.5 53h-498q-39 -336 -53 -522h459q33 49 49 110q14 6 41 6l45 -8q-43 -135 -63 -346 q-16 -8 -41 -8l-35 6q0 82 -17 137h-444q-18 -250 -31 -532h531q39 57 57 131l6 27q63 -12 86 -43l8 -13q-41 -102 -53 -225h-768zM391 1620l8 63q11 31 49.5 50.5t79.5 19.5t64.5 -18.5t23.5 -40.5l-10 -74q-23 -61 -131 -61q-41 0 -62.5 18t-21.5 43zM797 1620l8 63 q10 31 49 50.5t80 19.5t64.5 -18.5t23.5 -40.5l-10 -74q-23 -61 -131 -61q-41 0 -62.5 18t-21.5 43z" />
<glyph unicode="&#xcc;" horiz-adv-x="684" d="M55 -14q0 47 21 88q78 23 135 69q53 461 92 1149l-156 27q0 47 21 88q180 -14 256 -14l225 14q0 -47 -20 -88q-96 -16 -154 -64q-53 -444 -90 -1151l172 -30q0 -47 -20 -88q-201 14 -263 14q-90 0 -192 -12zM272 1726v21q56 71 117 96q96 -143 193 -246l34 -38v-15 l-100 -39q-61 41 -122.5 96.5t-90.5 90.5z" />
<glyph unicode="&#xcd;" horiz-adv-x="684" d="M55 -14q0 47 21 88q78 23 135 69q53 461 92 1149l-156 27q0 47 21 88q180 -14 256 -14l225 14q0 -47 -20 -88q-96 -16 -154 -64q-53 -444 -90 -1151l172 -30q0 -47 -20 -88q-201 14 -263 14q-90 0 -192 -12zM264 1544v15q125 114 225 264q68 -12 144 -51v-21 q-129 -152 -268 -246z" />
<glyph unicode="&#xce;" horiz-adv-x="684" d="M55 -14q0 47 21 88q78 23 135 69q53 461 92 1149l-156 27q0 47 21 88q180 -14 256 -14l225 14q0 -47 -20 -88q-96 -16 -154 -64q-53 -444 -90 -1151l172 -30q0 -47 -20 -88q-201 14 -263 14q-90 0 -192 -12zM127 1554v17q183 131 246 227l108 55q96 -152 226 -282v-17 l-107 -49q-111 94 -178 199q-82 -94 -205 -172z" />
<glyph unicode="&#xcf;" horiz-adv-x="684" d="M55 -14q0 47 21 88q78 23 135 69q53 461 92 1149l-156 27q0 47 21 88q180 -14 256 -14l225 14q0 -47 -20 -88q-96 -16 -154 -64q-53 -444 -90 -1151l172 -30q0 -47 -20 -88q-201 14 -263 14q-90 0 -192 -12zM109 1622l8 64q10 30 49 49.5t80 19.5t64.5 -18.5t23.5 -40.5 l-10 -74q-23 -61 -131 -61q-41 0 -62.5 18t-21.5 43zM514 1622l8 64q10 30 49 49.5t80 19.5t64.5 -18.5t23.5 -40.5l-10 -74q-23 -61 -131 -61q-41 0 -62.5 18t-21.5 43z" />
<glyph unicode="&#xd0;" horiz-adv-x="1345" d="M41 -14q0 47 20 88q82 25 140 73q29 262 47 471h-168q-10 23 -10 48l10 69h176q0 2 35 547l-152 37q0 47 21 88q163 -14 239 -14l359 20q111 0 203 -41t153.5 -106.5t104.5 -151.5q80 -158 79 -330q0 -367 -215 -585.5t-581 -218.5q-63 0 -142 10t-108 10zM371 123h395 q158 61 263.5 245.5t105.5 378t-117 363.5t-297 170h-277q-35 -291 -47 -545q80 2 277 21l33 -29l-27 -109h-289z" />
<glyph unicode="&#xd1;" d="M45 -14q0 47 21 88q80 23 137 71q37 270 51 443.5t29.5 376t25.5 317.5l-170 37q0 47 21 88q131 -14 213 -14h110q178 -362 364.5 -690t209.5 -369q61 586 78 948l-174 37q0 47 20 88q137 -14 207 -14q111 0 223 12l31 2q0 -47 -21 -88q-94 -16 -151 -62 q-74 -604 -99 -1257l-28 -20l-121 20q-383 729 -592 1100q-31 -248 -78 -991l168 -35q0 -47 -20 -88q-184 14 -260 14zM518 1575l35 180q43 14 98.5 14t165 -38.5t131.5 -38.5h47q23 25 39 63h76l14 -16l-34 -180q-43 -14 -101.5 -14.5t-166 38.5t-128.5 39h-47 q-23 -25 -39 -63h-76z" />
<glyph unicode="&#xd2;" horiz-adv-x="1406" d="M78 494q0 287 127 520q139 256 383 354q133 55 289 55q217 0 343 -150.5t126 -381.5q0 -356 -195 -633q-94 -135 -251 -217t-363.5 -82t-332.5 152t-126 383zM250 617.5q0 -191.5 72.5 -325.5t212.5 -169h284q172 92 263.5 274.5t91.5 373t-71 327.5t-206 182h-287 q-172 -92 -266 -281.5t-94 -381zM651 1726v21q56 71 117 96q96 -143 190 -246l37 -38v-15l-100 -39q-61 41 -122.5 96.5t-92.5 90.5z" />
<glyph unicode="&#xd3;" horiz-adv-x="1406" d="M78 494q0 287 127 520q139 256 383 354q133 55 289 55q217 0 343 -150.5t126 -381.5q0 -356 -195 -633q-94 -135 -251 -217t-363.5 -82t-332.5 152t-126 383zM250 617.5q0 -191.5 72.5 -325.5t212.5 -169h284q172 92 263.5 274.5t91.5 373t-71 327.5t-206 182h-287 q-172 -92 -266 -281.5t-94 -381zM666 1544v15q125 114 225 264q68 -12 143 -51v-21q-129 -152 -268 -246z" />
<glyph unicode="&#xd4;" horiz-adv-x="1406" d="M78 494q0 287 127 520q139 256 383 354q133 55 289 55q217 0 343 -150.5t126 -381.5q0 -356 -195 -633q-94 -135 -251 -217t-363.5 -82t-332.5 152t-126 383zM250 617.5q0 -191.5 72.5 -325.5t212.5 -169h284q172 92 263.5 274.5t91.5 373t-71 327.5t-206 182h-287 q-172 -92 -266 -281.5t-94 -381zM522 1554v17q183 131 246 227l109 55q96 -152 225 -282v-17l-107 -49q-111 94 -178 199q-82 -94 -205 -172z" />
<glyph unicode="&#xd5;" horiz-adv-x="1406" d="M78 494q0 287 127 520q139 256 383 354q133 55 289 55q217 0 343 -150.5t126 -381.5q0 -356 -195 -633q-94 -135 -251 -217t-363.5 -82t-332.5 152t-126 383zM250 617.5q0 -191.5 72.5 -325.5t212.5 -169h284q172 92 263.5 274.5t91.5 373t-71 327.5t-206 182h-287 q-172 -92 -266 -281.5t-94 -381zM520 1573l35 180q43 14 98.5 14t165 -38.5t131.5 -38.5h47q23 25 39 63h76l14 -16l-34 -181q-43 -14 -101.5 -14t-166 39t-128.5 39h-47q-23 -25 -39 -64h-75z" />
<glyph unicode="&#xd6;" horiz-adv-x="1406" d="M78 494q0 287 127 520q139 256 383 354q133 55 289 55q217 0 343 -150.5t126 -381.5q0 -356 -195 -633q-94 -135 -251 -217t-363.5 -82t-332.5 152t-126 383zM250 617.5q0 -191.5 72.5 -325.5t212.5 -169h284q172 92 263.5 274.5t91.5 373t-71 327.5t-206 182h-287 q-172 -92 -266 -281.5t-94 -381zM514 1624l8 64q10 30 49 49.5t80 19.5t64.5 -18.5t23.5 -40.5l-10 -74q-23 -61 -131 -61q-41 0 -62.5 18t-21.5 43zM920 1624l8 64q10 30 49 49.5t80 19.5t64.5 -18.5t23.5 -40.5l-10 -74q-23 -61 -131 -61q-41 0 -62.5 18t-21.5 43z" />
<glyph unicode="&#xd7;" horiz-adv-x="1064" d="M154 449l292 272l-233 242v20q37 61 94 100l252 -260l281 260q53 -27 67 -79l-278 -254l245 -252v-21q-28 -53 -94 -100l-262 270l-299 -272q-27 14 -43 33z" />
<glyph unicode="&#xd8;" horiz-adv-x="1406" d="M78 488.5q0 177.5 50 339t147.5 297t257 217t358.5 81.5l35 99l161 30l9 -32q-23 -49 -54 -125q143 -51 223.5 -187.5t80.5 -313.5t-50.5 -340t-144.5 -297t-250.5 -216t-353.5 -82l-47 2l-33 -96q-37 -10 -72 -10l-61 10l47 121q-143 51 -223 188t-80 314.5zM250 598 q0 -141 50 -260t146 -178q150 410 396 1120h-232q-172 -92 -266 -281.5t-94 -400.5zM557 123h262q172 92 263.5 274t91.5 391q0 141 -50.5 263.5t-146.5 187.5q-180 -453 -420 -1116z" />
<glyph unicode="&#xd9;" horiz-adv-x="1439" d="M72 1319q0 47 20 88q190 -14 252 -14q90 0 201 12l28 2q0 -47 -20 -88q-94 -16 -154 -62q-53 -426 -53 -905q0 -100 81 -164.5t183 -64.5h277q96 59 131 223t57.5 390.5t26.5 377.5l6 152l-164 41q0 47 25 88q147 -14 223 -15l199 15q0 -47 -21 -88q-80 -8 -145 -76 q-47 -600 -78 -779.5t-62.5 -256t-95 -131t-159 -75t-246.5 -20.5q-197 0 -303.5 98.5t-106.5 220.5t25.5 456.5t36.5 545.5zM612 1726v21q56 71 117 96q96 -143 193 -246l34 -38v-15l-100 -39q-61 41 -122.5 96.5t-90.5 90.5z" />
<glyph unicode="&#xda;" horiz-adv-x="1439" d="M72 1319q0 47 20 88q190 -14 252 -14q90 0 201 12l28 2q0 -47 -20 -88q-94 -16 -154 -62q-53 -426 -53 -905q0 -100 81 -164.5t183 -64.5h277q96 59 131 223t57.5 390.5t26.5 377.5l6 152l-164 41q0 47 25 88q147 -14 223 -15l199 15q0 -47 -21 -88q-80 -8 -145 -76 q-47 -600 -78 -779.5t-62.5 -256t-95 -131t-159 -75t-246.5 -20.5q-197 0 -303.5 98.5t-106.5 220.5t25.5 456.5t36.5 545.5zM641 1544v15q125 114 225 264q68 -12 144 -51v-21q-129 -152 -269 -246z" />
<glyph unicode="&#xdb;" horiz-adv-x="1439" d="M72 1319q0 47 20 88q190 -14 252 -14q90 0 201 12l28 2q0 -47 -20 -88q-94 -16 -154 -62q-53 -426 -53 -905q0 -100 81 -164.5t183 -64.5h277q96 59 131 223t57.5 390.5t26.5 377.5l6 152l-164 41q0 47 25 88q147 -14 223 -15l199 15q0 -47 -21 -88q-80 -8 -145 -76 q-47 -600 -78 -779.5t-62.5 -256t-95 -131t-159 -75t-246.5 -20.5q-197 0 -303.5 98.5t-106.5 220.5t25.5 456.5t36.5 545.5zM477 1554v17q183 131 246 227l108 55q96 -152 226 -282v-17l-107 -49q-111 94 -178 199q-82 -94 -205 -172z" />
<glyph unicode="&#xdc;" horiz-adv-x="1439" d="M72 1319q0 47 20 88q190 -14 252 -14q90 0 201 12l28 2q0 -47 -20 -88q-94 -16 -154 -62q-53 -426 -53 -905q0 -100 81 -164.5t183 -64.5h277q96 59 131 223t57.5 390.5t26.5 377.5l6 152l-164 41q0 47 25 88q147 -14 223 -15l199 15q0 -47 -21 -88q-80 -8 -145 -76 q-47 -600 -78 -779.5t-62.5 -256t-95 -131t-159 -75t-246.5 -20.5q-197 0 -303.5 98.5t-106.5 220.5t25.5 456.5t36.5 545.5zM446 1622l9 64q10 30 49 49.5t80 19.5t64.5 -18.5t23.5 -40.5l-10 -74q-23 -61 -132 -61q-41 0 -62.5 18t-21.5 43zM852 1622l8 64q10 30 49 49.5 t80 19.5t64.5 -18.5t23.5 -40.5l-10 -74q-23 -61 -131 -61q-41 0 -62.5 18t-21.5 43z" />
<glyph unicode="&#xdd;" horiz-adv-x="1112" d="M-10 -444q0 49 18 86h596q92 45 162 288q45 154 65 424l-20 13q-57 -133 -182 -256q-66 -63 -157 -102.5t-177 -39.5t-138.5 9.5t-74.5 21.5q-51 27 -53 45l-2 10q10 92 30.5 259t30.5 254t23 218q29 260 39 494h-152q0 47 20 88q127 16 238 66q29 0 51.5 -26t22.5 -67 q-90 -571 -129 -1218h182q96 0 238.5 146.5t212.5 299.5q61 520 102 795q102 31 194 31q-39 -158 -58 -302.5t-50 -415.5t-40 -349t-27.5 -204t-33 -179.5t-39 -139.5t-52 -118.5t-66.5 -80.5t-88 -65q-129 -43 -238 -43q-207 0 -389 43zM539 1544v15q125 114 225 264 q68 -12 143 -51v-21q-129 -152 -268 -246z" />
<glyph unicode="&#xde;" horiz-adv-x="1187" d="M14 -14q0 47 21 88q78 23 135 69q53 461 92 1149l-156 27q0 47 21 88q190 -14 254 -14q88 0 197 12l30 2q0 -47 -20 -88q-96 -16 -154 -64l-12 -102l285 33q178 0 284.5 -81t106.5 -261q0 -231 -173 -363.5t-415 -132.5h-154l-12 -244l172 -30q0 -47 -20 -88 q-211 14 -273 14q-90 0 -182 -12zM362 453h283q139 26 216 119.5t77 202t-45 184t-129 94.5h-352q-29 -264 -50 -600z" />
<glyph unicode="&#xdf;" horiz-adv-x="999" d="M68 -61q33 137 51 269t47 454.5t29 330.5q16 154 96 256q135 180 342 181q106 0 162.5 -54.5t56.5 -164t-67.5 -216t-174.5 -182.5q139 0 223.5 -75.5t84.5 -215.5q0 -180 -102.5 -323.5t-280.5 -218.5h-179q4 90 31 143h195q178 96 178 315q0 86 -43 150.5t-111 73.5 h-145l-15 20l17 131q231 133 231 322q0 109 -69 145h-136q-104 -63 -120 -207q-39 -324 -66 -657.5t-43 -446.5q-88 -23 -154 -30h-38z" />
<glyph unicode="&#xe0;" horiz-adv-x="1118" d="M61 326q0 264 158 460.5t391 196.5q76 0 172 -59q4 37 9 59q102 31 194 31q-39 -158 -64.5 -340t-50.5 -551h172q0 -47 -20 -88q-137 -16 -248 -66q-31 0 -52.5 22.5t-21.5 69.5l39 293l-20 13q-76 -184 -154 -285.5t-205 -101.5t-213 93t-86 253zM217 383q0 -90 41 -163 t92 -97h99q119 23 288 430q8 86 33 287h-328q-80 -14 -152.5 -158.5t-72.5 -298.5zM393 1444v20q51 65 117 92q90 -131 213 -284l41 -51v-15l-100 -39q-57 41 -125 111t-107 119z" />
<glyph unicode="&#xe1;" horiz-adv-x="1118" d="M61 326q0 264 158 460.5t391 196.5q76 0 172 -59q4 37 9 59q102 31 194 31q-39 -158 -64.5 -340t-50.5 -551h172q0 -47 -20 -88q-137 -16 -248 -66q-31 0 -52.5 22.5t-21.5 69.5l39 293l-20 13q-76 -184 -154 -285.5t-205 -101.5t-213 93t-86 253zM217 383q0 -90 41 -163 t92 -97h99q119 23 288 430q8 86 33 287h-328q-80 -14 -152.5 -158.5t-72.5 -298.5zM528 1206v15q148 145 248 295q68 -12 144 -52v-20q-152 -182 -291 -277z" />
<glyph unicode="&#xe2;" horiz-adv-x="1118" d="M61 326q0 264 158 460.5t391 196.5q76 0 172 -59q4 37 9 59q102 31 194 31q-39 -158 -64.5 -340t-50.5 -551h172q0 -47 -20 -88q-137 -16 -248 -66q-31 0 -52.5 22.5t-21.5 69.5l39 293l-20 13q-76 -184 -154 -285.5t-205 -101.5t-213 93t-86 253zM217 383q0 -90 41 -163 t92 -97h99q119 23 288 430q8 86 33 287h-328q-80 -14 -152.5 -158.5t-72.5 -298.5zM360 1217v16q183 131 246 227l109 56q96 -152 225 -283v-16l-106 -50q-111 94 -179 199q-82 -94 -204 -172z" />
<glyph unicode="&#xe3;" horiz-adv-x="1118" d="M61 326q0 264 158 460.5t391 196.5q76 0 172 -59q4 37 9 59q102 31 194 31q-39 -158 -64.5 -340t-50.5 -551h172q0 -47 -20 -88q-137 -16 -248 -66q-31 0 -52.5 22.5t-21.5 69.5l39 293l-20 13q-76 -184 -154 -285.5t-205 -101.5t-213 93t-86 253zM217 383q0 -90 41 -163 t92 -97h99q119 23 288 430q8 86 33 287h-328q-80 -14 -152.5 -158.5t-72.5 -298.5zM334 1219l35 180q43 14 98 14t164.5 -39t132.5 -39h47q23 25 39 64h76l14 -17l-35 -180q-43 -14 -101.5 -14t-166 39t-127.5 39h-47q-23 -25 -39 -64h-76z" />
<glyph unicode="&#xe4;" horiz-adv-x="1118" d="M61 326q0 264 158 460.5t391 196.5q76 0 172 -59q4 37 9 59q102 31 194 31q-39 -158 -64.5 -340t-50.5 -551h172q0 -47 -20 -88q-137 -16 -248 -66q-31 0 -52.5 22.5t-21.5 69.5l39 293l-20 13q-76 -184 -154 -285.5t-205 -101.5t-213 93t-86 253zM217 383q0 -90 41 -163 t92 -97h99q119 23 288 430q8 86 33 287h-328q-80 -14 -152.5 -158.5t-72.5 -298.5zM330 1262l8 63q10 31 49 50.5t80 19.5t64.5 -18.5t23.5 -41.5l-10 -73q-23 -61 -131 -62q-41 0 -62.5 18.5t-21.5 43.5zM735 1262l8 63q11 31 49.5 50.5t79.5 19.5t65 -18.5t24 -41.5 l-11 -73q-23 -61 -131 -62q-41 0 -62.5 18.5t-21.5 43.5z" />
<glyph unicode="&#xe5;" horiz-adv-x="1118" d="M61 326q0 264 158 460.5t391 196.5q76 0 172 -59q4 37 9 59q102 31 194 31q-39 -158 -64.5 -340t-50.5 -551h172q0 -47 -20 -88q-137 -16 -248 -66q-31 0 -52.5 22.5t-21.5 69.5l39 293l-20 13q-76 -184 -154 -285.5t-205 -101.5t-213 93t-86 253zM217 383q0 -90 41 -163 t92 -97h99q119 23 288 430q8 86 33 287h-328q-80 -14 -152.5 -158.5t-72.5 -298.5zM508 1272q0 76 47 134t117.5 58t108.5 -31.5t38 -100t-47 -127t-119 -58.5q-145 0 -145 125zM597 1287q-1 -42 38 -50h39q18 4 34.5 25.5t17.5 63.5t-38 50h-39q-18 -4 -34.5 -25.5 t-17.5 -63.5z" />
<glyph unicode="&#xe6;" horiz-adv-x="1556" d="M61 326q0 264 158 460.5t391 196.5q76 0 172 -59q4 37 9 59q102 31 194 31q-18 -70 -31 -133q129 102 289 102q100 0 147.5 -51t47.5 -125q0 -369 -578 -381q0 -287 127 -303h406q0 -47 -21 -88q-258 -55 -352 -55q-166 0 -236.5 82.5t-74.5 279.5q-72 -172 -149 -267 t-202 -95t-211 93t-86 253zM217 383q0 -90 41 -163t92 -97h99q55 10 122.5 107.5t102.5 174t63 148.5l33 287h-328q-80 -14 -152.5 -158.5t-72.5 -298.5zM864 506q236 8 333 72.5t97 177.5q0 68 -57 84h-188q-70 -27 -120 -122t-65 -212z" />
<glyph unicode="&#xe7;" horiz-adv-x="894" d="M59 340q0 172 60.5 311.5t185.5 235.5t287 96q78 0 142.5 -28.5t92.5 -53.5q-43 -76 -69 -184l-10 -35q-41 -18 -101 -18q18 82 18.5 122.5t-30.5 53.5h-215q-84 -33 -146.5 -155t-62.5 -259q0 -160 59 -229q51 -59 95 -70l16 -4h364q0 -47 -20 -88q-154 -39 -258 -51 l-10 -54h67q57 -33 58 -102q0 -98 -85 -156.5t-216 -60.5q12 37 41 78q72 0 106.5 27.5t34.5 64.5t-23 53h-86l-12 19l43 129q-162 6 -244 96t-82 262z" />
<glyph unicode="&#xe8;" horiz-adv-x="913" d="M96 362q0 141 61.5 281.5t187.5 240t286 99.5q100 0 147 -51t47 -125q0 -369 -577 -381q0 -281 168 -303h364q0 -47 -20 -88q-217 -55 -311 -55q-352 0 -353 382zM254 516q236 8 332 68.5t96 171.5q0 68 -57 84h-189q-68 -27 -117 -118t-65 -206zM371 1444v20 q50 65 116 92q90 -131 213 -284l41 -51v-15l-100 -39q-57 41 -124.5 111t-106.5 119z" />
<glyph unicode="&#xe9;" horiz-adv-x="913" d="M96 362q0 141 61.5 281.5t187.5 240t286 99.5q100 0 147 -51t47 -125q0 -369 -577 -381q0 -281 168 -303h364q0 -47 -20 -88q-217 -55 -311 -55q-352 0 -353 382zM254 516q236 8 332 68.5t96 171.5q0 68 -57 84h-189q-68 -27 -117 -118t-65 -206zM477 1206v15 q148 145 248 295q68 -12 143 -52v-20q-152 -182 -290 -277z" />
<glyph unicode="&#xea;" horiz-adv-x="913" d="M96 362q0 141 61.5 281.5t187.5 240t286 99.5q100 0 147 -51t47 -125q0 -369 -577 -381q0 -281 168 -303h364q0 -47 -20 -88q-217 -55 -311 -55q-352 0 -353 382zM254 516q236 8 332 68.5t96 171.5q0 68 -57 84h-189q-68 -27 -117 -118t-65 -206zM322 1217v16 q182 131 245 227l109 56q96 -152 225 -283v-16l-106 -50q-111 94 -179 199q-82 -94 -204 -172z" />
<glyph unicode="&#xeb;" horiz-adv-x="913" d="M96 362q0 141 61.5 281.5t187.5 240t286 99.5q100 0 147 -51t47 -125q0 -369 -577 -381q0 -281 168 -303h364q0 -47 -20 -88q-217 -55 -311 -55q-352 0 -353 382zM254 516q236 8 332 68.5t96 171.5q0 68 -57 84h-189q-68 -27 -117 -118t-65 -206zM303 1262l8 63 q11 31 49.5 50.5t79.5 19.5t64.5 -18.5t23.5 -41.5l-10 -73q-23 -61 -131 -62q-41 0 -62.5 18.5t-21.5 43.5zM709 1262l8 63q10 31 49 50.5t80 19.5t64.5 -18.5t23.5 -41.5l-10 -73q-23 -61 -131 -62q-41 0 -62.5 18.5t-21.5 43.5z" />
<glyph unicode="&#xec;" horiz-adv-x="587" d="M68 840q0 47 20 88q117 16 227 65q29 0 51.5 -25.5t22.5 -66.5q-47 -399 -63 -778h163q0 -47 -20 -88q-137 -16 -248 -66q-31 0 -52.5 22.5t-21.5 69.5q45 287 78 779h-157zM109 1444v20q50 65 116 92q90 -131 213 -284l41 -51v-15l-100 -39q-57 41 -125 111t-107 119z " />
<glyph unicode="&#xed;" horiz-adv-x="587" d="M68 840q0 47 20 88q117 16 227 65q29 0 51.5 -25.5t22.5 -66.5q-47 -399 -63 -778h163q0 -47 -20 -88q-137 -16 -248 -66q-31 0 -52.5 22.5t-21.5 69.5q45 287 78 779h-157zM221 1206v15q148 145 248 295q68 -12 143 -52v-20q-152 -182 -290 -277z" />
<glyph unicode="&#xee;" horiz-adv-x="587" d="M51 1217v16q183 131 246 227l109 56q96 -152 225 -283v-16l-107 -50q-111 94 -178 199q-82 -94 -205 -172zM68 840q0 47 20 88q117 16 227 65q29 0 51.5 -25.5t22.5 -66.5q-47 -399 -63 -778h163q0 -47 -20 -88q-137 -16 -248 -66q-31 0 -52.5 22.5t-21.5 69.5 q45 287 78 779h-157z" />
<glyph unicode="&#xef;" horiz-adv-x="587" d="M29 1262l8 63q10 31 49 50.5t80 19.5t64.5 -18.5t23.5 -41.5l-10 -73q-23 -61 -131 -62q-41 0 -62.5 18.5t-21.5 43.5zM68 840q0 47 20 88q117 16 227 65q29 0 51.5 -25.5t22.5 -66.5q-47 -399 -63 -778h163q0 -47 -20 -88q-137 -16 -248 -66q-31 0 -52.5 22.5 t-21.5 69.5q45 287 78 779h-157zM434 1262l8 63q11 31 49.5 50.5t79.5 19.5t64.5 -18.5t23.5 -41.5l-10 -73q-23 -61 -131 -62q-41 0 -62.5 18.5t-21.5 43.5z" />
<glyph unicode="&#xf0;" horiz-adv-x="1056" d="M63 360q0 143 58.5 282.5t182.5 240t287 100.5t238 -80q0 197 -81 332l-123 -92q-29 20 -43 41l-27 55l119 86q-33 33 -94 68v20l110 105q61 -45 105 -95q57 51 86 76h39l65 -86l-121 -90q90 -174 90 -514q0 -444 -143 -645q-57 -80 -155.5 -132t-231.5 -52 q-178 0 -269.5 91t-91.5 289zM217 410.5q0 -146.5 54.5 -210t93.5 -73.5l16 -4h197q86 33 151.5 158t65.5 256q0 162 -58 229q-51 59 -90 70l-16 4h-197q-86 -33 -151.5 -158t-65.5 -271.5z" />
<glyph unicode="&#xf1;" horiz-adv-x="1257" d="M113 840q0 47 20 88q117 16 227 65q29 0 51.5 -25.5t22.5 -66.5l-39 -293l21 -12q63 145 188 266t283 121q76 0 121 -20.5t53 -40.5l6 -21q-47 -395 -63 -778h163q0 -47 -20 -88q-137 -16 -248 -66q-31 0 -52.5 22.5t-21.5 69.5q45 287 78 779h-125q-82 0 -194.5 -128 t-182.5 -282q-20 -254 -47 -430q-100 -31 -192 -31q33 137 57.5 321.5t42.5 549.5h-149zM444 1219l35 180q43 14 98.5 14t165 -39t131.5 -39h48q23 25 39 64h75l15 -17l-35 -180q-43 -14 -101.5 -14t-166 39t-127.5 39h-48q-23 -25 -38 -64h-76z" />
<glyph unicode="&#xf2;" horiz-adv-x="1003" d="M63 360q0 143 58.5 282.5t182.5 240t294 100.5q350 0 350 -381q0 -143 -58.5 -282.5t-182 -239.5t-293.5 -100q-350 0 -351 380zM217 410.5q0 -146.5 54.5 -210t93.5 -73.5l16 -4h197q86 33 151.5 158t65.5 256q0 162 -58 229q-51 59 -90 70l-16 4h-197 q-86 -33 -151.5 -158t-65.5 -271.5zM403 1444v20q51 65 117 92q90 -131 213 -284l41 -51v-15l-100 -39q-57 41 -125 111t-107 119z" />
<glyph unicode="&#xf3;" horiz-adv-x="1003" d="M63 360q0 143 58.5 282.5t182.5 240t294 100.5q350 0 350 -381q0 -143 -58.5 -282.5t-182 -239.5t-293.5 -100q-350 0 -351 380zM217 410.5q0 -146.5 54.5 -210t93.5 -73.5l16 -4h197q86 33 151.5 158t65.5 256q0 162 -58 229q-51 59 -90 70l-16 4h-197 q-86 -33 -151.5 -158t-65.5 -271.5zM483 1206v15q148 145 248 295q68 -12 143 -52v-20q-152 -182 -290 -277z" />
<glyph unicode="&#xf4;" horiz-adv-x="1003" d="M63 360q0 143 58.5 282.5t182.5 240t294 100.5q350 0 350 -381q0 -143 -58.5 -282.5t-182 -239.5t-293.5 -100q-350 0 -351 380zM217 410.5q0 -146.5 54.5 -210t93.5 -73.5l16 -4h197q86 33 151.5 158t65.5 256q0 162 -58 229q-51 59 -90 70l-16 4h-197 q-86 -33 -151.5 -158t-65.5 -271.5zM311 1217v16q183 131 246 227l109 56q96 -152 225 -283v-16l-107 -50q-111 94 -178 199q-82 -94 -205 -172z" />
<glyph unicode="&#xf5;" horiz-adv-x="1003" d="M63 360q0 143 58.5 282.5t182.5 240t294 100.5q350 0 350 -381q0 -143 -58.5 -282.5t-182 -239.5t-293.5 -100q-350 0 -351 380zM217 410.5q0 -146.5 54.5 -210t93.5 -73.5l16 -4h197q86 33 151.5 158t65.5 256q0 162 -58 229q-51 59 -90 70l-16 4h-197 q-86 -33 -151.5 -158t-65.5 -271.5zM299 1219l35 180q43 14 98 14t165 -39t132 -39h47q23 25 39 64h76l14 -17l-35 -180q-43 -14 -101 -14t-165.5 39t-128.5 39h-47q-23 -25 -39 -64h-76z" />
<glyph unicode="&#xf6;" horiz-adv-x="1003" d="M63 360q0 143 58.5 282.5t182.5 240t294 100.5q350 0 350 -381q0 -143 -58.5 -282.5t-182 -239.5t-293.5 -100q-350 0 -351 380zM217 410.5q0 -146.5 54.5 -210t93.5 -73.5l16 -4h197q86 33 151.5 158t65.5 256q0 162 -58 229q-51 59 -90 70l-16 4h-197 q-86 -33 -151.5 -158t-65.5 -271.5zM311 1262l8 63q11 31 50 50.5t79.5 19.5t64.5 -18.5t24 -41.5l-11 -73q-23 -61 -131 -62q-41 0 -62.5 18.5t-21.5 43.5zM717 1262l8 63q10 31 49 50.5t80 19.5t64.5 -18.5t23.5 -41.5l-10 -73q-23 -61 -131 -62q-41 0 -62.5 18.5 t-21.5 43.5z" />
<glyph unicode="&#xf7;" horiz-adv-x="1048" d="M145 641l11 70h186q283 0 510 20l33 -29l-27 -129h-702q-10 43 -11 68zM358 297l9 63q10 31 49 50.5t80 19.5t64.5 -18.5t23.5 -40.5l-11 -74q-23 -61 -131 -61q-41 0 -62.5 18t-21.5 43zM424 922l8 63q10 31 49 50.5t80 19.5t64.5 -18.5t23.5 -41.5l-10 -73 q-23 -61 -131 -62q-41 0 -62.5 18.5t-21.5 43.5z" />
<glyph unicode="&#xf8;" horiz-adv-x="1011" d="M63 360q0 143 58.5 282.5t182.5 240t284 100.5q37 0 53 -2l29 76l141 33l8 -33l-49 -107q178 -80 178 -348q0 -143 -58.5 -282.5t-182 -239.5t-283.5 -100q-35 0 -49 2q-8 -23 -27 -74q-6 -10 -74 -10l-55 10l41 96q-197 69 -197 356zM217 426q0 -201 102 -276 q137 342 271 690h-156q-86 -33 -151.5 -158t-65.5 -256zM428 123h150q86 33 151.5 158t65.5 256q0 182 -90 264q-133 -311 -277 -678z" />
<glyph unicode="&#xf9;" horiz-adv-x="1243" d="M96 840q0 47 21 88q117 16 227 65q29 0 51.5 -25.5t22.5 -66.5q-45 -287 -78 -778h125q84 0 198.5 133t180.5 287q29 262 55 440q102 31 195 31q-39 -158 -64.5 -340t-50.5 -551h172q0 -47 -21 -88q-137 -16 -247 -66q-31 0 -52.5 22.5t-21.5 69.5l39 293l-21 13 q-63 -145 -188 -266t-283 -121q-76 0 -121 20t-51 41l-8 20q45 403 62 779h-142zM465 1444v20q51 65 117 92q90 -131 213 -284l41 -51v-15l-101 -39q-57 41 -124.5 111t-106.5 119z" />
<glyph unicode="&#xfa;" horiz-adv-x="1243" d="M96 840q0 47 21 88q117 16 227 65q29 0 51.5 -25.5t22.5 -66.5q-45 -287 -78 -778h125q84 0 198.5 133t180.5 287q29 262 55 440q102 31 195 31q-39 -158 -64.5 -340t-50.5 -551h172q0 -47 -21 -88q-137 -16 -247 -66q-31 0 -52.5 22.5t-21.5 69.5l39 293l-21 13 q-63 -145 -188 -266t-283 -121q-76 0 -121 20t-51 41l-8 20q45 403 62 779h-142zM565 1206v15q148 145 248 295q68 -12 143 -52v-20q-152 -182 -290 -277z" />
<glyph unicode="&#xfb;" horiz-adv-x="1243" d="M96 840q0 47 21 88q117 16 227 65q29 0 51.5 -25.5t22.5 -66.5q-45 -287 -78 -778h125q84 0 198.5 133t180.5 287q29 262 55 440q102 31 195 31q-39 -158 -64.5 -340t-50.5 -551h172q0 -47 -21 -88q-137 -16 -247 -66q-31 0 -52.5 22.5t-21.5 69.5l39 293l-21 13 q-63 -145 -188 -266t-283 -121q-76 0 -121 20t-51 41l-8 20q45 403 62 779h-142zM381 1217v16q183 131 246 227l108 56q96 -152 226 -283v-16l-107 -50q-111 94 -178 199q-82 -94 -205 -172z" />
<glyph unicode="&#xfc;" horiz-adv-x="1243" d="M96 840q0 47 21 88q117 16 227 65q29 0 51.5 -25.5t22.5 -66.5q-45 -287 -78 -778h125q84 0 198.5 133t180.5 287q29 262 55 440q102 31 195 31q-39 -158 -64.5 -340t-50.5 -551h172q0 -47 -21 -88q-137 -16 -247 -66q-31 0 -52.5 22.5t-21.5 69.5l39 293l-21 13 q-63 -145 -188 -266t-283 -121q-76 0 -121 20t-51 41l-8 20q45 403 62 779h-142zM387 1262l8 63q11 31 49.5 50.5t79.5 19.5t64.5 -18.5t23.5 -41.5l-10 -73q-23 -61 -131 -62q-41 0 -62.5 18.5t-21.5 43.5zM793 1262l8 63q10 31 49 50.5t80 19.5t64.5 -18.5t23.5 -41.5 l-10 -73q-23 -61 -131 -62q-41 0 -62.5 18.5t-21.5 43.5z" />
<glyph unicode="&#xfd;" horiz-adv-x="1169" d="M86 840q0 47 20 88q117 16 228 65q29 0 51.5 -25.5t22.5 -66.5q-51 -287 -84 -778h125q84 0 198.5 133t179.5 287q29 262 56 440q102 31 194 31q-39 -158 -51 -245t-27.5 -236.5t-25.5 -247t-28.5 -217t-41 -194.5t-63.5 -153.5t-95 -121.5q-123 -100 -321 -101 q-84 0 -250 43l-55 15q0 39 18 86h467q92 45 162 288q45 154 65 424l-20 13q-63 -145 -188 -266t-283 -121q-76 0 -121 20t-51 41l-8 20q47 418 67 779h-141zM545 1206v15q148 145 248 295q68 -12 143 -52v-20q-152 -182 -291 -277z" />
<glyph unicode="&#xfe;" horiz-adv-x="868" d="M-199 -522q0 47 21 88q78 18 135 55q102 600 174 1843h-149q0 47 20 88q117 16 227 66q29 0 51.5 -23.5t22.5 -68.5l-92 -918l20 -12q76 184 154 285.5t205 101.5t213 -93t86 -253q0 -264 -158 -460.5t-391 -196.5q-78 0 -166 26l-37 -405l160 -35q0 -47 -21 -88 q-164 20 -219 20q-96 0 -217 -14zM186 123h322q80 14 152.5 158.5t72.5 298.5q0 90 -41 162.5t-92 97.5h-98q-86 -16 -178 -193q-59 -113 -111 -235z" />
<glyph unicode="&#xff;" horiz-adv-x="1169" d="M86 840q0 47 20 88q117 16 228 65q29 0 51.5 -25.5t22.5 -66.5q-51 -287 -84 -778h125q84 0 198.5 133t179.5 287q29 262 56 440q102 31 194 31q-39 -158 -51 -245t-27.5 -236.5t-25.5 -247t-28.5 -217t-41 -194.5t-63.5 -153.5t-95 -121.5q-123 -100 -321 -101 q-84 0 -250 43l-55 15q0 39 18 86h467q92 45 162 288q45 154 65 424l-20 13q-63 -145 -188 -266t-283 -121q-76 0 -121 20t-51 41l-8 20q47 418 67 779h-141zM360 1262l9 63q10 31 49 50.5t80 19.5t64.5 -18.5t23.5 -41.5l-11 -73q-23 -61 -131 -62q-41 0 -62.5 18.5 t-21.5 43.5zM766 1262l8 63q10 31 49 50.5t80 19.5t64.5 -18.5t23.5 -41.5l-10 -73q-23 -61 -131 -62q-41 0 -62.5 18.5t-21.5 43.5z" />
<glyph unicode="&#x152;" horiz-adv-x="2088" d="M152 494q0 354 192 624q94 131 249 210t349 79l240 -14h725q18 -16 32 -52q-43 -76 -71 -184l-8 -35q-41 -18 -101 -18q18 82 18.5 123t-30.5 53h-498q-39 -336 -53 -522h459q33 49 49 110q14 6 41 6l45 -8q-43 -135 -64 -346q-16 -8 -40 -8l-35 6q0 82 -17 137h-444 q-18 -250 -31 -532h531q39 57 57 131l6 27q63 -12 86 -43l8 -13q-41 -102 -53 -225h-768q-156 -41 -324 -41q-274 0 -412 148.5t-138 386.5zM324 617.5q0 -191.5 72.5 -325.5t211.5 -169h285q59 33 94 63q45 399 84 1039q-41 35 -100 55h-287q-172 -92 -266 -281.5t-94 -381 z" />
<glyph unicode="&#x153;" horiz-adv-x="1544" d="M63 360q0 143 58.5 282.5t182.5 240t284 100.5q203 0 286 -160q154 160 353 160q100 0 147 -51t47 -125q0 -369 -577 -381q0 -281 168 -303h364q0 -47 -20 -88q-217 -55 -312 -55q-208 0 -294 135q-139 -135 -321.5 -135t-274 91t-91.5 289zM217 426q0 -162 57 -229 q51 -59 91 -70l16 -4h197q66 25 124 113q-10 60 -10 126q0 162 82 320q-18 63 -54 103t-63 46l-26 9h-197q-86 -33 -151.5 -158t-65.5 -256zM848 506q236 8 333 72.5t97 177.5q0 68 -57 84h-189q-70 -27 -120 -122t-64 -212z" />
<glyph unicode="&#x2c6;" horiz-adv-x="819" d="M109 1217v16q182 131 245 227l109 56q96 -152 225 -283v-16l-106 -50q-111 94 -179 199q-82 -94 -204 -172z" />
<glyph unicode="&#x2dc;" horiz-adv-x="819" d="M137 1219l35 180q43 14 98.5 14t165 -39t131.5 -39h47q23 25 39 64h76l14 -17l-34 -180q-43 -14 -101.5 -14t-166 39t-128.5 39h-47q-23 -25 -39 -64h-75z" />
<glyph unicode="&#x2000;" horiz-adv-x="937" />
<glyph unicode="&#x2001;" horiz-adv-x="1874" />
<glyph unicode="&#x2002;" horiz-adv-x="937" />
<glyph unicode="&#x2003;" horiz-adv-x="1874" />
<glyph unicode="&#x2004;" horiz-adv-x="624" />
<glyph unicode="&#x2005;" horiz-adv-x="468" />
<glyph unicode="&#x2006;" horiz-adv-x="312" />
<glyph unicode="&#x2007;" horiz-adv-x="312" />
<glyph unicode="&#x2008;" horiz-adv-x="234" />
<glyph unicode="&#x2009;" horiz-adv-x="374" />
<glyph unicode="&#x200a;" horiz-adv-x="104" />
<glyph unicode="&#x2010;" horiz-adv-x="833" d="M98 653l11 70h186q180 0 407 20l33 -28l-26 -129h-600q-10 43 -11 67z" />
<glyph unicode="&#x2011;" horiz-adv-x="833" d="M98 653l11 70h186q180 0 407 20l33 -28l-26 -129h-600q-10 43 -11 67z" />
<glyph unicode="&#x2012;" horiz-adv-x="833" d="M98 653l11 70h186q180 0 407 20l33 -28l-26 -129h-600q-10 43 -11 67z" />
<glyph unicode="&#x2013;" horiz-adv-x="1048" d="M145 653l11 70h186q283 0 510 20l33 -28l-27 -129h-702q-10 43 -11 67z" />
<glyph unicode="&#x2014;" horiz-adv-x="1294" d="M199 653l10 70h371q283 0 510 20l32 -28l-26 -129h-887q-10 43 -10 67z" />
<glyph unicode="&#x2018;" horiz-adv-x="477" d="M31 1005q0 80 61.5 199t122.5 189l61 71q33 -10 70 -39v-24q-57 -49 -102 -122t-45 -123t20.5 -90t38.5 -40v-63q-80 -27 -164 -97h-24q-39 59 -39 139z" />
<glyph unicode="&#x2019;" horiz-adv-x="477" d="M102 905v25q57 49 102.5 121.5t45.5 123t-20.5 90.5t-39.5 40v63q80 27 164 96h25q39 -59 39 -139t-61.5 -198.5t-123.5 -188.5l-61 -72q-33 10 -70 39z" />
<glyph unicode="&#x201a;" horiz-adv-x="464" d="M41 -293q57 49 102 122t45 123t-20.5 90t-38.5 40v63q80 27 164 97h24q39 -59 39 -139t-61.5 -199t-122.5 -191l-61 -69q-33 10 -70 39v24z" />
<glyph unicode="&#x201c;" horiz-adv-x="757" d="M31 1005q0 80 61.5 199t122.5 189l61 71q33 -10 70 -39v-24q-57 -49 -102 -122t-45 -123t20.5 -90t38.5 -40v-63q-80 -27 -164 -97h-24q-39 59 -39 139zM334 1005q0 80 61.5 199t122.5 189l62 71q33 -10 69 -39v-24q-57 -49 -102 -122t-45 -123t20.5 -90t38.5 -40v-63 q-80 -27 -164 -97h-24q-39 59 -39 139z" />
<glyph unicode="&#x201d;" horiz-adv-x="870" d="M141 905v25q57 49 102.5 121.5t45.5 123t-20.5 90.5t-39.5 40v63q80 27 164 96h25q39 -59 39 -139t-61.5 -198.5t-123.5 -188.5l-61 -72q-33 10 -70 39zM444 905v25q57 49 102.5 121.5t45.5 123t-20.5 90.5t-39.5 40v63q80 27 164 96h25q39 -59 39 -139t-61.5 -198.5 t-123.5 -188.5l-61 -72q-33 10 -70 39z" />
<glyph unicode="&#x201e;" horiz-adv-x="749" d="M41 -293q57 49 102 122t45 123t-20.5 90t-38.5 40v63q80 27 164 97h24q39 -59 39 -139t-61.5 -199t-122.5 -191l-61 -69q-33 10 -70 39v24zM344 -293q57 49 102.5 122t45.5 123t-20.5 90t-39.5 40v63q80 27 164 97h25q39 -59 38.5 -139t-61.5 -199t-123 -191l-61 -69 q-33 10 -70 39v24z" />
<glyph unicode="&#x2022;" horiz-adv-x="512" d="M61 451l11 88q16 43 69.5 69.5t109.5 26.5t88 -25.5t32 -56.5l-15 -102q-14 -41 -65 -62.5t-109.5 -21.5t-89.5 24.5t-31 59.5z" />
<glyph unicode="&#x202f;" horiz-adv-x="374" />
<glyph unicode="&#x2039;" horiz-adv-x="905" d="M137 518l8 82q133 66 267.5 156t201.5 159l125 -71v-37q-68 -66 -190.5 -149.5t-212.5 -122.5q219 -133 360 -222v-37l-51 -57q-96 72 -223 146.5t-205 113.5z" />
<glyph unicode="&#x203a;" horiz-adv-x="778" d="M129 332v37q68 66 190.5 149.5t212.5 122.5q-219 133 -360 221v37l51 57q96 -72 223 -146.5t205 -113.5l80 -39l-8 -82q-133 -66 -267 -155.5t-202 -159.5z" />
<glyph unicode="&#x205f;" horiz-adv-x="468" />
<glyph unicode="&#x20ac;" horiz-adv-x="1185" d="M72 479l10 66h98q10 104 33 190h-113q-10 20 -10 45l10 66h150q78 190 218 304t302 114q63 0 118.5 -16.5t78.5 -33.5l24 -16q0 -35 -41 -72h-315q-168 -90 -246 -280h41q168 0 387 18l31 -26l-27 -103h-467q-18 -82 -22 -190h78q168 0 387 18l30 -26l-24 -103h-463 q20 -102 79.5 -180t133.5 -98h348q0 -47 -18 -84q-172 -72 -332 -72t-261.5 129t-111.5 305h-96q-10 20 -10 45z" />
<glyph unicode="&#xe000;" horiz-adv-x="993" d="M0 0v993h993v-993h-993z" />
<glyph unicode="&#xfb02;" horiz-adv-x="1183" d="M109 840q0 47 20 88q80 16 119 98q39 369 176 506q66 66 129 65q125 0 422 -41l100 -12q-39 -158 -47 -221q-51 -483 -102 -1200h159q0 -47 -20 -88q-137 -16 -248 -66q-31 0 -52.5 22.5t-21.5 69.5q106 899 142 1403h-361q-84 -106 -121 -370l-16 -142l229 11 q0 -49 -20 -123h-219l-64 -840q-100 -31 -192 -31q33 137 48 254t60 617h-120z" />
</font>
</defs>
</svg>
